<?xml version="1.0" standalone="no"?>
<!DOCTYPE svg PUBLIC "-//W3C//DTD SVG 1.1//EN" "http://www.w3.org/Graphics/SVG/1.1/DTD/svg11.dtd" >
<svg xmlns="http://www.w3.org/2000/svg" xmlns:xlink="http://www.w3.org/1999/xlink" version="1.1">
<metadata></metadata>
<defs>
<font id="pf_centro_slab_problack" horiz-adv-x="1290" >
<font-face units-per-em="2048" ascent="1536" descent="-512" />
<missing-glyph horiz-adv-x="651" />
<glyph unicode="&#xfb01;" horiz-adv-x="1523" d="M68 768v209l149 43v92q0 54 8 100.5t26.5 96t54.5 88.5t87.5 71t130.5 49t178 17q242 0 457 -61l-49 -267q-199 33 -313 33q-107 0 -157 -37t-50 -131v-61h715v-754h143v-227q-59 -25 -136.5 -39.5t-140.5 -14.5q-137 0 -194 54t-57 170l-2 569h-328v-526h127v-242h-627 v242h125v526h-147z" />
<glyph unicode="&#xfb02;" horiz-adv-x="1531" d="M68 768v209l149 43v88q0 420 485 420q141 0 312 -27l313 31v-1290h129v-242h-625v242h109v979q-76 12 -143 12q-107 0 -157 -36.5t-50 -129.5v-57h239v-242h-239v-526h110v-242h-610v242h125v526h-147z" />
<glyph unicode="&#xfb03;" horiz-adv-x="2234" d="M66 768v205q79 26 149 45v61q0 68 11.5 123.5t44 111t86 93t143.5 61t211 23.5q172 0 327 -47q62 57 158 82.5t254 25.5q222 -4 416 -61q-9 -47 -24.5 -137t-22.5 -127q-184 30 -314 30q-107 0 -157 -35t-50 -128v-86h715v-754h141v-227q-58 -23 -135.5 -36.5 t-138.5 -13.5q-65 0 -111.5 13.5t-74 36t-43 60t-20.5 76t-5 93.5v512h-328v-528h134v-240h-619v240h111v528h-336v-528h106v-240h-606v240h125v528h-147zM588 1008h338v114q0 46 6 66q-86 18 -160 18q-99 0 -141.5 -33.5t-42.5 -115.5v-49z" />
<glyph unicode="&#xfb04;" horiz-adv-x="2240" d="M66 768v205q79 26 149 45v59q0 69 11.5 125t45 111.5t88 93t145.5 61t212 23.5q175 0 321 -47q62 61 163.5 84.5t273.5 23.5q116 -3 323 -28l238 32v-1316h127v-240h-623v240h109v1007q-85 10 -144 10q-107 0 -157 -35t-50 -128v-86h238v-240h-238v-528h117v-240h-606 v240h115v528h-336v-528h102v-240h-602v240h125v528h-147zM588 1008h338v120q0 30 6 60q-86 18 -160 18q-99 0 -141.5 -33.5t-42.5 -115.5v-49z" />
<glyph horiz-adv-x="0" />
<glyph horiz-adv-x="682" />
<glyph unicode=" "  horiz-adv-x="651" />
<glyph unicode="&#x09;" horiz-adv-x="651" />
<glyph unicode="&#xa0;" horiz-adv-x="651" />
<glyph unicode="!" horiz-adv-x="673" d="M150 147q0 75 53 128t135 53q84 0 136 -52t52 -129q0 -73 -53 -125.5t-135 -52.5q-85 0 -136.5 52t-51.5 126zM162 1460h352v-491l-35 -535h-280l-35 535z" />
<glyph unicode="&#x22;" horiz-adv-x="899" d="M115 1417h305l-47 -559h-215zM492 1417h303l-45 -559h-215z" />
<glyph unicode="#" horiz-adv-x="1292" d="M139 408l6 172h187l51 202h-172l2 170h211l92 367h197l-88 -367h178l92 367h195l-86 -367h155l-2 -170h-196l-52 -202h176l-2 -172h-211l-96 -410h-201l97 410h-178l-99 -410h-200l98 410h-154zM535 580h176l51 202h-178z" />
<glyph unicode="$" d="M139 973q0 168 99.5 277t273.5 134v146h92v-1688h-92v176q-196 17 -352 88v347h207v-146q54 -25 145 -35v328q-81 24 -142.5 53t-116.5 72.5t-84.5 106t-29.5 141.5zM428 1008q0 -41 20.5 -66t63.5 -43v227q-84 -30 -84 -118zM672 -158v1688h94v-146q172 -14 289 -75 v-334h-203v139q-43 17 -86 25v-318q64 -19 112.5 -38t104.5 -52t92 -71.5t60 -97t24 -128.5q0 -169 -104 -275t-289 -136v-181h-94zM766 287q94 25 94 125q0 42 -23.5 69t-70.5 47v-241z" />
<glyph unicode="%" horiz-adv-x="2007" d="M57 956q0 90 21 163.5t66 133.5t123.5 93.5t185.5 33.5t185 -34t120.5 -94.5t62 -133.5t19.5 -162t-21 -163t-65.5 -133t-121.5 -92t-181 -33q-107 0 -185 32.5t-122.5 91.5t-65.5 132.5t-21 164.5zM328 956q0 -56 5 -95t18 -71.5t38.5 -48.5t63.5 -16q66 0 92 61t26 170 q0 50 -4.5 88t-16.5 73t-36.5 54t-60.5 19q-39 0 -65 -19.5t-38.5 -55.5t-17 -73t-4.5 -86zM559 -39l682 1501h219l-684 -1501h-217zM1157 410q0 90 21 163.5t65.5 133.5t123 93.5t185.5 33.5t185 -34t120.5 -94.5t62 -133t19.5 -160.5q0 -90 -21 -164t-65.5 -134 t-121.5 -93t-181 -33q-106 0 -184 33t-122.5 92t-65.5 133t-21 164zM1427 410q0 -75 9 -122.5t37.5 -78.5t78.5 -31q119 0 119 232q0 50 -5 88t-17 73.5t-36.5 54.5t-60.5 19q-39 0 -65 -19.5t-38.5 -56t-17 -73.5t-4.5 -86z" />
<glyph unicode="&#x26;" horiz-adv-x="1724" d="M125 387q0 126 75 239t234 195q-94 122 -94 271q0 39 9.5 80t36 86.5t66.5 80t107 57.5t152 23q92 0 164.5 -24t113 -59t67 -79.5t35.5 -80t9 -66.5q0 -188 -275 -356q131 -158 158 -189q119 -130 133 -143q92 92 119 203h-113v227h533v-227h-121q-48 -204 -219 -381 q153 -125 284 -187l-124 -209q-85 35 -189 100t-188 134q-191 -119 -447 -119q-151 0 -268.5 47t-187.5 144t-70 233zM457 412q0 -93 67 -146t174 -53q101 0 195 51q-26 27 -72.5 79t-56.5 63q-17 21 -80.5 94t-95.5 112q-131 -80 -131 -200zM629 1106q0 -74 65 -164 q65 36 105.5 76t40.5 92q0 47 -30.5 73.5t-80.5 26.5q-46 0 -73 -32t-27 -72z" />
<glyph unicode="'" horiz-adv-x="567" d="M127 1417h305l-45 -559h-217z" />
<glyph unicode="(" horiz-adv-x="759" d="M131 563q0 253 104 488t271 407l168 -104q-35 -49 -68 -111.5t-71.5 -160t-62 -230t-23.5 -277.5q0 -159 23.5 -299.5t61.5 -239t71.5 -160.5t68.5 -107l-164 -111q-171 174 -275 409t-104 496z" />
<glyph unicode=")" horiz-adv-x="761" d="M88 1354l170 106q166 -172 269.5 -408t103.5 -487q0 -263 -103.5 -496.5t-275.5 -408.5l-162 109q35 47 67.5 108.5t70.5 161t61.5 240t23.5 299.5q0 145 -23.5 277.5t-62 229.5t-71.5 159t-68 110z" />
<glyph unicode="*" horiz-adv-x="917" d="M84 1069q37 142 78 250q44 -27 127 -74t96 -55l-51 246q45 2 133 2q86 0 129 -2q-8 -38 -24.5 -120t-26.5 -124q40 21 115.5 64t109.5 61q28 -66 78 -248q-225 -31 -256 -35l184 -170q-101 -81 -205 -149q-10 21 -106 229q-13 -29 -50 -107t-57 -122q-111 70 -208 149 q180 168 186 174z" />
<glyph unicode="+" d="M227 520v211h336v346h217v-346h336v-211h-336v-354h-217v354h-336z" />
<glyph unicode="," horiz-adv-x="624" d="M106 -209q119 101 136 225q-68 7 -100.5 50.5t-32.5 111.5q0 74 56.5 127t143.5 53q100 0 150.5 -65.5t50.5 -159.5q0 -135 -87 -265t-220 -202z" />
<glyph unicode="-" horiz-adv-x="849" d="M131 430v256h588v-256h-588z" />
<glyph unicode="." horiz-adv-x="624" d="M117 170q0 81 57.5 138t136.5 57q80 0 137.5 -57t57.5 -138q0 -79 -57.5 -137t-135.5 -58q-80 0 -138 58t-58 137z" />
<glyph unicode="/" horiz-adv-x="823" d="M6 -76l535 1532h272l-534 -1532h-273z" />
<glyph unicode="0" d="M47 682q0 117 18.5 218.5t63 193t112 156t171 102t235.5 37.5q131 0 234 -38.5t169.5 -103t109.5 -156.5t61 -191.5t18 -215.5q0 -119 -19.5 -221t-64 -192t-112 -153t-168.5 -99.5t-228 -36.5q-132 0 -236 36t-171.5 98.5t-111.5 152.5t-62.5 191.5t-18.5 221.5z M436 682q0 -80 5.5 -141.5t19.5 -118t37.5 -93t61 -58t87.5 -21.5q59 0 100 33t62.5 95t31 135.5t9.5 168.5q0 59 -3 108t-11 101t-22.5 91t-36.5 71t-55 48.5t-75 16.5q-211 0 -211 -436z" />
<glyph unicode="1" d="M131 1243l379 129h336v-1130h289v-242h-959v242h285v825q-3 0 -130.5 -14.5t-162.5 -16.5z" />
<glyph unicode="2" d="M78 0v217q11 9 33 26q83 65 126.5 100t120 99t119.5 105.5t98.5 100.5t84.5 103.5t50 95t21 93.5q0 75 -43 115.5t-145 40.5q-63 0 -152.5 -25.5t-185.5 -79.5q-9 16 -58.5 119t-54.5 113q247 163 518 163q238 0 374 -113t136 -312q0 -57 -18.5 -117.5t-45.5 -112 t-73 -110t-86.5 -102.5t-100 -99t-100 -89t-100.5 -83v-6q35 0 155.5 -1t155.5 -1v133h273v-373h-1102z" />
<glyph unicode="3" d="M102 84l84 242q204 -64 349 -64q122 0 189 51t67 140q0 182 -275 182q-36 0 -86 -6l-37 176q24 25 171 164t165 157h-291v-131h-270v377h950l43 -201l-346 -331q176 -27 272.5 -125t96.5 -262q0 -153 -78 -262t-209 -161.5t-301 -52.5q-108 0 -249 25t-245 82z" />
<glyph unicode="4" d="M57 389v209q47 61 570 774h411v-739h201v-244h-201v-147h127v-242h-616v242h115v147h-607zM395 633h271l-2 348h-11z" />
<glyph unicode="5" d="M104 86l89 254q208 -68 348 -68q116 0 186 49.5t70 143.5t-67.5 140t-176.5 46q-87 0 -199 -45l-178 84l60 682h874v-362h-281v116h-294l-21 -239q68 20 143 20q241 0 385 -116t144 -328q0 -153 -78 -264t-209 -165t-299 -54q-111 0 -252.5 24t-243.5 82z" />
<glyph unicode="6" d="M86 610q0 131 21 243t69.5 211.5t122.5 169t186.5 110t255.5 40.5q181 0 318 -45l-49 -254q-122 33 -240 33q-61 0 -111.5 -19t-84 -49t-57.5 -71.5t-36 -83t-16 -86.5l10 -8q135 73 293 73q85 0 161 -27t136 -78t95.5 -134t35.5 -186q0 -150 -70.5 -256.5t-190 -158.5 t-276.5 -52q-151 0 -263.5 46.5t-179 132.5t-98.5 197.5t-32 251.5zM471 526q0 -270 188 -270q78 0 124 51t46 139q0 83 -36 132t-127 49q-21 0 -43.5 -4t-38.5 -8.5t-36 -13.5t-29.5 -14t-27 -14.5t-20.5 -11.5v-35z" />
<glyph unicode="7" d="M168 944v426h975v-227l-529 -1143h-368l514 1126h-309v-182h-283z" />
<glyph unicode="8" d="M74 377q0 62 19.5 124t73 131.5t134.5 119.5q-81 53 -118.5 113.5t-37.5 148.5q0 166 143 273.5t363 107.5q71 0 140 -12.5t136 -41t117.5 -70t81.5 -105.5t31 -142q0 -177 -170 -307q213 -111 213 -330q0 -175 -156.5 -289t-410.5 -114q-261 0 -410 105t-149 288z M455 408q0 -64 47.5 -107t134.5 -43q86 0 133 46.5t49 105.5q2 62 -52.5 107t-195.5 99q-116 -88 -116 -208zM496 1008q0 -18 4.5 -33.5t18.5 -30t24 -24t36 -23t38.5 -19.5t48 -22t49.5 -22q102 86 102 170q0 55 -42.5 94t-125.5 39q-71 0 -112 -42t-41 -87z" />
<glyph unicode="9" d="M80 920q0 149 72.5 256t194 158.5t278.5 51.5q151 0 262 -46.5t176.5 -132.5t96 -197.5t30.5 -251.5q0 -131 -21 -243t-69.5 -211.5t-122.5 -169t-186.5 -110t-255.5 -40.5q-181 0 -318 45l49 254q122 -33 240 -33q61 0 111.5 19t84 49t57.5 71.5t36 83t16 86.5l-10 8 q-135 -73 -293 -73q-85 0 -161 27t-136 78.5t-95.5 134.5t-35.5 186zM446 922q0 -181 164 -181q21 0 43.5 4t38.5 8.5t36 13.5t29.5 14t27 14.5t20.5 11.5v35q0 42 -4.5 78t-17.5 72.5t-33.5 62t-54.5 41.5t-79 16q-78 0 -124 -51t-46 -139z" />
<glyph unicode=":" horiz-adv-x="622" d="M117 170q0 81 57.5 138t136.5 57q80 0 137.5 -57t57.5 -138q0 -79 -57.5 -137t-135.5 -58q-80 0 -138 58t-58 137zM117 752q0 78 58 136t136 58q79 0 137 -58t58 -136q0 -82 -57 -138.5t-136 -56.5q-80 0 -138 56.5t-58 138.5z" />
<glyph unicode=";" horiz-adv-x="622" d="M109 -209q118 100 135 225q-68 7 -100.5 50.5t-32.5 111.5q0 74 55.5 127t142.5 53q102 0 152.5 -65.5t50.5 -159.5q0 -135 -87.5 -265.5t-221.5 -201.5zM117 752q0 78 58 136t136 58q79 0 137 -58t58 -136q0 -82 -57 -138.5t-136 -56.5q-80 0 -138 56.5t-58 138.5z" />
<glyph unicode="&#x3c;" d="M156 526v172l987 473v-245l-690 -312l690 -313v-244z" />
<glyph unicode="=" d="M193 334v203h905v-203h-905zM193 688v207h905v-207h-905z" />
<glyph unicode="&#x3e;" d="M158 57v244l692 313l-692 312v245l987 -473v-172z" />
<glyph unicode="?" horiz-adv-x="1107" d="M94 1016v360q230 86 473 86q228 0 352.5 -101t124.5 -271q0 -59 -21.5 -114t-56.5 -98.5t-76.5 -85t-83.5 -80t-77 -76t-56.5 -80t-21.5 -85.5q0 -25 4 -65q-217 0 -309 -5q-8 39 -8 125q0 64 22.5 123t56 100.5t73 83.5t73 74.5t56 72t22.5 77.5q0 60 -43.5 93.5 t-120.5 33.5q-46 0 -123 -15l-2 -153h-258zM340 143q0 72 54 124t130 52q78 0 132.5 -51.5t54.5 -124.5q0 -69 -54.5 -120.5t-130.5 -51.5q-77 0 -131.5 51t-54.5 121z" />
<glyph unicode="@" horiz-adv-x="1964" d="M174 688q0 163 64.5 306.5t176 245t267.5 160t334 58.5q353 0 556.5 -189t203.5 -507q0 -100 -34.5 -184.5t-92 -139.5t-131.5 -85.5t-154 -30.5q-63 0 -118.5 14t-101 47.5t-61.5 83.5q-48 -57 -117.5 -87t-131.5 -30q-67 0 -114.5 21.5t-70.5 56t-33 68.5t-10 69 q0 42 10.5 72.5t36 53.5t57 38.5t87 28t111.5 20.5t143 17v24q0 55 -21.5 77t-89.5 22q-87 0 -207 -29l-37 158q143 57 305 57q304 0 304 -246v-285q0 -23 20.5 -45t60.5 -22q95 0 144 67.5t49 171.5q0 244 -144 387.5t-419 143.5q-148 0 -270.5 -45t-204 -123t-126 -184.5 t-44.5 -229.5q0 -127 39 -233t112.5 -184.5t187.5 -122t257 -43.5q142 0 299 49l53 -158q-141 -72 -354 -72q-186 0 -336.5 57.5t-249.5 159t-152 240t-53 301.5zM879 600q0 -82 73 -82q52 0 99 41v127q-9 -1 -28.5 -3.5t-29 -4t-26 -4t-25 -5.5t-20.5 -7.5t-18 -10t-13 -13 t-9.5 -17t-2.5 -21.5z" />
<glyph unicode="A" horiz-adv-x="1626" d="M41 0v248h111l430 1165h485l406 -1165h112v-248h-627v248h119l-45 145h-465l-47 -145h125v-248h-604zM649 629h309q-21 72 -45 151.5t-53.5 176t-46.5 151.5h-8q-15 -53 -75.5 -234.5t-80.5 -244.5z" />
<glyph unicode="B" horiz-adv-x="1519" d="M88 0v250h152v913h-148v250h836q229 0 347 -102.5t118 -282.5q0 -29 -8 -64t-25 -76t-52 -79.5t-83 -63.5v-4q61 -25 105 -66.5t65.5 -89.5t31 -91t9.5 -84q0 -187 -133.5 -298.5t-352.5 -111.5h-862zM635 250h203q88 0 135 49.5t47 126.5q0 78 -46.5 129t-135.5 51h-203 v-356zM635 840h182q78 0 123 45.5t45 118.5t-42.5 116t-125.5 43h-182v-323z" />
<glyph unicode="C" horiz-adv-x="1368" d="M102 707q0 80 9 152.5t32 148.5t59.5 139t95 119.5t133.5 95.5t180 61.5t231 22.5q200 0 391 -57v-455h-272v207q-49 10 -113 10q-175 0 -251.5 -112t-76.5 -322q0 -125 23 -208.5t73.5 -132.5t120.5 -69t174 -20q53 0 154 12t170 29l57 -271q-97 -37 -227.5 -58.5 t-249.5 -21.5q-120 0 -219.5 20.5t-172.5 56.5t-129 89.5t-92 114.5t-59 136t-32 151t-9 162z" />
<glyph unicode="D" horiz-adv-x="1605" d="M90 0v250h154v913h-144v252h734q155 0 273 -37.5t192 -100t120.5 -154.5t65 -191.5t18.5 -220.5q0 -117 -21 -218.5t-71 -193.5t-126 -157t-193 -103.5t-265 -38.5h-737zM641 250h145q133 0 215 116.5t82 338.5q0 230 -80 344t-223 114h-139v-913z" />
<glyph unicode="E" horiz-adv-x="1460" d="M90 0v252h148v911h-146v250h1272v-485h-270v235h-461v-321l434 16v-260l-434 12v-358h481v252h272v-504h-1296z" />
<glyph unicode="F" horiz-adv-x="1437" d="M90 0v250h150v913h-148v250h1276v-485h-272v235h-461v-348l432 14v-258l-432 13v-334h188v-250h-733z" />
<glyph unicode="G" horiz-adv-x="1509" d="M102 707q0 79 9 150.5t32.5 147t60.5 139t96.5 120.5t136.5 96.5t185 62.5t238 23q227 0 418 -57v-443h-272v193q-68 14 -129 14q-185 0 -271 -115t-86 -321q0 -229 74 -332.5t237 -103.5q78 0 150 16v235h-152v228h605v-228h-99v-471q-234 -84 -520 -84q-713 0 -713 730 z" />
<glyph unicode="H" horiz-adv-x="1753" d="M90 0v250h152v913h-152v250h674v-250h-129v-319h485v319h-129v250h672v-250h-147v-913h147v-250h-672v250h129v360h-485v-360h129v-250h-674z" />
<glyph unicode="I" horiz-adv-x="972" d="M143 0v250h148v913h-148v252h686v-252h-143v-913h143v-250h-686z" />
<glyph unicode="J" horiz-adv-x="1034" d="M-33 -104q158 65 240 127t115.5 143t33.5 211v786l-194 2v250h753v-252h-165v-788q0 -314 -175.5 -505t-515.5 -251z" />
<glyph unicode="K" horiz-adv-x="1611" d="M90 0v250h150v915h-150v246h668v-246h-135v-338l385 338h-109v246h633v-246h-131l-357 -303l414 -610h115v-252h-664l-2 252h109l-256 381l-137 -119v-264h125v-250h-658z" />
<glyph unicode="L" horiz-adv-x="1406" d="M90 0v250h152v913h-150v250h692v-250h-147v-913h465v266h272v-516h-1284z" />
<glyph unicode="M" horiz-adv-x="2136" d="M80 0v248h151v915h-151v250h651q215 -476 273 -612q33 -70 65 -150h8q26 58 58 135q34 80 134 318.5t130 308.5h651v-250h-131v-915h131v-248h-633v248h117v676h-6q-13 -28 -34.5 -81.5t-31.5 -76.5q-32 -78 -113 -266t-108 -254h-328q-88 184 -256 555q-8 20 -26.5 61 t-26.5 62h-6v-676h129v-248h-647z" />
<glyph unicode="N" horiz-adv-x="1802" d="M86 0v248h143v915h-141v250h563q44 -70 146.5 -230.5t171 -270t139.5 -228.5q33 -50 88 -143h10v622h-137v250h641v-250h-137v-1163h-387l-326 502l-174 274l-90 146q-1 0 -2 -1t-2 -1v-672h139v-248h-645z" />
<glyph unicode="O" horiz-adv-x="1624" d="M102 709q0 159 43.5 291t129.5 232t224 156t316 56t315 -56t221.5 -156.5t127.5 -232t43 -288.5q0 -160 -45.5 -293t-132.5 -232t-222.5 -154t-306.5 -55q-177 0 -314.5 54t-224 152t-130.5 231t-44 295zM520 709q0 -225 69 -342t226 -117q285 0 285 459q0 100 -13 178.5 t-44 144.5t-88.5 101.5t-139.5 35.5q-295 0 -295 -460z" />
<glyph unicode="P" horiz-adv-x="1402" d="M90 0v250h143v913h-143v252h739q267 0 394 -120.5t127 -327.5q0 -87 -30.5 -166t-88.5 -143t-154 -102t-217 -38h-231v-268h186v-250h-725zM629 760h125q85 0 132.5 50.5t47.5 145.5q0 207 -191 207h-114v-403z" />
<glyph unicode="Q" horiz-adv-x="1634" d="M102 707q0 126 27 235.5t83.5 202t139 158t200 102.5t259.5 37q179 0 316 -56t221.5 -156.5t127 -231.5t42.5 -289q0 -206 -73.5 -367t-213.5 -252l311 -82q-20 -53 -108 -282l-627 219q-102 27 -176 51q-176 34 -295.5 132.5t-176.5 244t-57 334.5zM518 707 q0 -226 68 -342.5t225 -116.5q287 0 287 459q0 80 -7.5 144.5t-27 125t-51.5 101t-83 65t-118 24.5q-293 0 -293 -460z" />
<glyph unicode="R" horiz-adv-x="1531" d="M98 0v252h138v911h-138v252h781q136 0 235.5 -34.5t155.5 -96.5t82 -136.5t26 -164.5q0 -69 -21.5 -135.5t-74 -129t-129.5 -93.5l182 -383l166 -23v-213q-56 -20 -132 -30.5t-126 -10.5q-104 0 -160 43.5t-100 141.5l-178 407h-180v-305h137v-252h-664zM625 795h139 q194 0 194 194q0 87 -49 130.5t-131 43.5h-153v-368z" />
<glyph unicode="S" horiz-adv-x="1376" d="M100 989q0 210 152 327.5t438 117.5q126 0 260 -23.5t232 -71.5q0 -59 1 -178t1 -178h-273q0 25 -1 73.5t-1 71.5q-79 33 -196 33q-102 0 -150.5 -36t-48.5 -93q0 -32 18.5 -57.5t70 -49t78.5 -33.5t106 -34l18 -6q61 -18 101 -31.5t91.5 -33.5t85 -38.5t71 -44 t60.5 -54.5t43.5 -65t29.5 -80t9 -95q0 -212 -162 -323.5t-479 -111.5t-546 97q0 61 -1.5 186t-1.5 188h269l3 -149q106 -41 253 -41q118 0 171.5 38t53.5 101q0 48 -26 75t-80 46q-35 12 -103 34q-91 29 -135 44t-115 42.5t-104.5 48.5t-78.5 54t-64.5 67.5t-34.5 81 t-15 101.5z" />
<glyph unicode="T" horiz-adv-x="1423" d="M37 924v491h1349v-491h-268v239h-211v-913h166v-250h-725v250h168v913h-213l2 -239h-268z" />
<glyph unicode="U" horiz-adv-x="1638" d="M70 1163v252h624v-252h-121v-651q0 -134 62.5 -197t187.5 -63q111 0 176.5 61.5t65.5 198.5v651h-117v252h621v-252h-121v-633q0 -550 -627 -550q-335 0 -486 140t-151 410v633h-114z" />
<glyph unicode="V" horiz-adv-x="1595" d="M25 1161v252h639v-252h-121q37 -120 108.5 -345t104.5 -331l49 -163h8q3 12 22 72t27 93q31 97 101 325t110 349h-125v252h621v-252h-109l-411 -1161h-496l-422 1161h-106z" />
<glyph unicode="W" horiz-adv-x="2324" d="M27 1161v254h651v-254h-115l115 -463l86 -362h6l100 358l109 369l-33 98h-117l-2 254h643l3 -254h-134l150 -461l106 -319h7l75 342l105 438h-121v254h641v-254h-119q-14 -55 -166.5 -580.5t-165.5 -580.5h-495l-135 430l-62 199h-6l-61 -201l-134 -428h-493l-328 1161 h-110z" />
<glyph unicode="X" horiz-adv-x="1566" d="M43 0v252h113l354 496l-297 411h-162v256h733v-256h-96l176 -250l180 252h-102v254h561v-254h-112l-355 -459l338 -450h137v-252h-729v252h97l-189 276l-192 -276h102v-252h-557z" />
<glyph unicode="Y" horiz-adv-x="1501" d="M29 1161v254h620v-254h-112l215 -389h8l215 389h-117v254h615v-254h-107l-408 -649v-262h154v-250h-735v250h155v260l-401 651h-102z" />
<glyph unicode="Z" horiz-adv-x="1376" d="M57 0v248l717 917h-397v-241h-271v491h1178v-239l-723 -924h490v276h272v-528h-1266z" />
<glyph unicode="[" horiz-adv-x="727" d="M143 -326v1762h512v-207h-190v-1362h190v-193h-512z" />
<glyph unicode="\" horiz-adv-x="823" d="M6 1456h273l534 -1532h-272z" />
<glyph unicode="]" horiz-adv-x="727" d="M88 -133h193v1362h-193v207h514v-1762h-514v193z" />
<glyph unicode="^" horiz-adv-x="1069" d="M37 688l401 698h170q28 -49 404 -698h-248l-242 436l-237 -436h-248z" />
<glyph unicode="_" horiz-adv-x="1024" d="M0 -137h1026v-182h-1026v182z" />
<glyph unicode="`" horiz-adv-x="1116" d="M344 1372l172 203l346 -361l-112 -129z" />
<glyph unicode="a" horiz-adv-x="1245" d="M63 270q0 57 16.5 102.5t56 86t112.5 68t178 40.5l272 25v33q0 71 -36 105t-123 34q-168 0 -308 -45l-57 229q89 38 215.5 60t245.5 22q208 0 317 -83t109 -277v-424h139q15 -177 17 -209q-133 -62 -312 -62q-83 0 -131.5 30t-52.5 108q0 2 -2 2q-132 -140 -332 -140 q-75 0 -134 19.5t-93.5 50t-57.5 71.5t-31 78.5t-8 75.5zM459 317q0 -56 24.5 -84t79.5 -28q71 0 131 57v174l-137 -18q-50 -7 -74 -35t-24 -66z" />
<glyph unicode="b" horiz-adv-x="1353" d="M35 1233v242h512v-517q70 40 145 59t131 19q100 0 177 -26t127 -71.5t81.5 -113.5t44.5 -145.5t13 -173.5q0 -88 -14 -161.5t-50.5 -143.5t-95 -118t-154 -77t-221.5 -29q-111 0 -272 26.5t-297 92.5v1137h-127zM549 274q76 -32 162 -32q38 0 65.5 9.5t53.5 35.5t39.5 80 t13.5 135q0 69 -10 119t-25 77t-38 42.5t-43.5 19.5t-47.5 4q-73 0 -170 -53v-437z" />
<glyph unicode="c" horiz-adv-x="1083" d="M78 500q0 81 13.5 151.5t50.5 143.5t96.5 124.5t159 84t229.5 32.5q199 0 346 -55v-342h-250v123q-18 4 -61 4q-96 0 -143.5 -70t-47.5 -184q0 -144 54.5 -202t152.5 -58q138 0 278 45q9 -34 33 -115t35 -121q-81 -39 -191.5 -60t-220.5 -21q-125 0 -220 28t-154 74.5 t-95.5 114.5t-50.5 141t-14 162z" />
<glyph unicode="d" horiz-adv-x="1363" d="M82 481q0 124 24 222t76 174.5t141 117.5t212 41q55 0 131.5 -13t136.5 -40v250h-139v242h524v-1233h127v-242h-490v82l-6 2q-63 -52 -150.5 -78t-152.5 -26q-434 0 -434 501zM467 489q0 -62 9.5 -107.5t24.5 -71t38 -40.5t44.5 -19.5t49.5 -4.5q38 0 85.5 16t82.5 41 v418q-82 45 -168 45q-32 0 -57 -9t-52 -35.5t-42 -85.5t-15 -147z" />
<glyph unicode="e" horiz-adv-x="1171" d="M82 502q0 81 16 154.5t55.5 143.5t99 121t152 82t209.5 31q113 0 199.5 -29.5t138 -77t84 -114.5t44.5 -134t12 -144v-84h-625q0 -110 52 -156.5t171 -46.5q145 0 305 57l74 -225q-191 -103 -453 -103q-106 0 -190.5 20t-142 57.5t-98 85t-62.5 108.5t-31.5 122t-9.5 132 zM473 604h272q-2 82 -30 128t-99 46q-70 0 -105.5 -50t-37.5 -124z" />
<glyph unicode="f" horiz-adv-x="989" d="M68 768v207l149 45v102q0 61 8.5 110t36 100t72.5 85t123 56t184 22q185 0 328 -45l-51 -256q-94 18 -183 18q-145 0 -145 -108v-96h289v-240h-289v-526h151v-242h-651v242h125v526h-147z" />
<glyph unicode="g" horiz-adv-x="1292" d="M68 -199q0 76 35 137.5t94 96.5q-52 15 -80.5 56t-28.5 97q0 65 45 116t123 79q-66 29 -105.5 97.5t-39.5 166.5t42.5 174t115 121t162.5 67.5t192 22.5q138 0 229 -24h383v-168h-131l-10 -9q21 -31 34 -81t13 -88q0 -87 -40 -156t-109 -112.5t-157.5 -66t-191.5 -24.5 l-121 -2q-100 0 -100 -59q0 -41 63 -41h312q430 0 430 -289q0 -55 -18.5 -104.5t-65 -98t-119 -83t-189.5 -56t-266 -21.5q-142 0 -243.5 20.5t-155.5 57.5t-78 79.5t-24 94.5zM444 -102q0 -44 43 -71.5t136 -27.5q91 0 147.5 29t56.5 72q0 40 -30 63t-88 23h-199 q-28 -12 -47 -38t-19 -50zM498 662q0 -58 30.5 -89.5t89.5 -31.5q60 0 98 31.5t38 91.5q0 54 -32.5 90.5t-98.5 36.5q-61 0 -93 -36t-32 -93z" />
<glyph unicode="h" horiz-adv-x="1411" d="M41 1233v240h512v-555q159 116 324 116q95 0 164.5 -28t108.5 -79t57 -114t18 -141v-418h131v-227q-132 -50 -264 -50q-77 0 -129.5 19t-78 54.5t-35 73t-9.5 87.5v383q0 78 -30.5 112.5t-94.5 34.5q-36 0 -81 -17t-81 -44v-680h-387v1233h-125z" />
<glyph unicode="i" horiz-adv-x="798" d="M92 766v244h488v-754h141v-227q-57 -25 -134.5 -39.5t-140.5 -14.5q-138 0 -194.5 55.5t-58.5 172.5v563h-101zM158 1337q0 92 64.5 157t156.5 65q90 0 155.5 -65t65.5 -157q0 -90 -65.5 -155.5t-155.5 -65.5q-92 0 -156.5 65t-64.5 156z" />
<glyph unicode="j" horiz-adv-x="757" d="M-57 -254q59 34 98.5 61t69 57.5t45.5 57.5t26 66.5t12.5 79t2.5 100.5v598h-111v244h500v-838q0 -293 -127.5 -443.5t-421.5 -213.5zM164 1337q0 92 64.5 157t156.5 65q90 0 155.5 -65t65.5 -157q0 -90 -65.5 -155.5t-155.5 -65.5q-92 0 -156.5 65t-64.5 156z" />
<glyph unicode="k" horiz-adv-x="1347" d="M55 1233v233h518v-776l183 144v174h497v-240h-139l-160 -121l222 -411l139 -25v-207q-50 -17 -129 -26t-129 -9q-34 0 -57.5 2.5t-53.5 11.5t-54 30t-42 55l-178 364l-99 -74v-118h95v-240h-607v240h123v993h-129z" />
<glyph unicode="l" horiz-adv-x="802" d="M80 1231v242h518v-1231h129v-242h-643v242h127v989h-131z" />
<glyph unicode="m" horiz-adv-x="2027" d="M53 768v242h502v-97l8 -4q78 60 170 91.5t168 31.5q101 0 160.5 -35t97.5 -110q72 67 170.5 106t179.5 39q181 0 257.5 -94t76.5 -270v-414h125v-227q-132 -50 -260 -50q-78 0 -128 15.5t-77 50t-37 78.5t-10 112v383q0 67 -23 94t-77 27q-36 0 -81 -16t-77 -41 q4 -37 4 -113v-567h-381v625q0 110 -90 110q-34 0 -80.5 -15t-83.5 -42v-678h-387v768h-127z" />
<glyph unicode="n" horiz-adv-x="1425" d="M55 770v240h504v-88q1 0 6 -1t6 -1q161 114 320 114q77 0 137.5 -18.5t99.5 -50.5t64.5 -79t36 -99t10.5 -115v-418h131v-225q-122 -52 -264 -52q-64 0 -111 15.5t-73.5 38.5t-42.5 57t-20.5 63.5t-4.5 65.5v377q0 79 -29.5 113t-95.5 34q-36 0 -81 -17t-81 -44v-680 h-389v770h-123z" />
<glyph unicode="o" horiz-adv-x="1286" d="M82 506q0 113 34.5 207.5t102.5 166.5t177 112t249 40q141 0 249.5 -40t175 -112t100.5 -166.5t34 -207.5t-34 -207.5t-102 -166.5t-177.5 -112t-251.5 -40q-276 0 -416.5 144t-140.5 382zM477 506q0 -61 7 -106t25 -83.5t51.5 -58.5t82.5 -20q48 0 81.5 20.5t51.5 59 t25.5 84t7.5 104.5q0 262 -162 262q-170 0 -170 -262z" />
<glyph unicode="p" horiz-adv-x="1361" d="M51 -193h127v959h-125v242h488v-84l6 -2q63 53 150 79.5t153 26.5q434 0 434 -502q0 -546 -453 -546q-55 0 -131.5 13.5t-136.5 41.5v-228h133v-241h-645v241zM565 297q79 -47 168 -47q166 0 166 270q0 76 -13.5 126.5t-39 73t-51 30.5t-62.5 8q-38 0 -85 -16.5 t-83 -41.5v-403z" />
<glyph unicode="q" horiz-adv-x="1339" d="M88 465q0 93 15.5 172t55.5 153.5t103 126.5t165 83.5t235 31.5q110 0 257 -23t273 -83v-1116h127v-244h-643v244h131v243q-70 -41 -146 -60.5t-131 -19.5q-117 0 -203 35t-138 101t-77 155q-24 85 -24 192v9zM471 506v-12q0 -60 9 -105q10 -49 25 -76t38.5 -42t44 -19 t47.5 -4q80 0 170 49v440q-73 25 -139 25q-195 0 -195 -256z" />
<glyph unicode="r" horiz-adv-x="1067" d="M76 0v242h119v526h-111v244h489v-156l11 -4q86 71 190 124.5t197 53.5q46 0 64 -25t18 -83q0 -73 -28 -158t-83 -137l-362 53v-438h122v-242h-626z" />
<glyph unicode="s" horiz-adv-x="1130" d="M72 342h254q0 -69 2 -104q25 -12 76.5 -20.5t97.5 -8.5q61 0 104 20t43 54q0 23 -6.5 38t-26 26t-32.5 15t-49 13q-3 1 -5 1.5t-5 1t-5 1.5q-191 54 -262 87q-156 73 -179 191q-5 24 -5 50q0 159 125 242t362 83q106 0 217 -20.5t193 -59.5q0 -180 2 -270h-256 q0 16 -1 49t-1 49q-50 19 -119 19q-55 0 -89 -21t-34 -55q0 -17 10.5 -30t32.5 -23t39 -15.5t47 -13.5q16 -4 65.5 -15.5t75.5 -18t73.5 -22.5t74.5 -31.5t62.5 -42.5t54.5 -57.5t33 -74.5t14 -96q0 -303 -525 -303q-279 0 -456 77q0 191 -2 285z" />
<glyph unicode="t" horiz-adv-x="952" d="M27 768v209l168 49l88 260l266 23v-299h285v-242h-285v-348q0 -93 28.5 -124.5t110.5 -31.5q56 0 160 19l43 -246q-68 -28 -154.5 -44t-156.5 -16q-105 0 -182.5 21.5t-121 53.5t-69.5 80t-33.5 91t-7.5 96v449h-139z" />
<glyph unicode="u" horiz-adv-x="1402" d="M55 766v244h514v-604q0 -72 23 -103t86 -31q30 0 74 18t79 54v424h-100v242h488v-756h127v-227q-148 -50 -273 -50q-108 0 -158 37t-63 111q-158 -152 -340 -152q-164 0 -248 88t-84 254v451h-125z" />
<glyph unicode="v" horiz-adv-x="1368" d="M51 733v277h402l149 -461l86 -270h8q5 20 42 128t42 125l78 234h-70v244h529v-244h-82q-16 -45 -156 -383t-155 -383h-486q-12 35 -132 359t-136 374h-119z" />
<glyph unicode="w" horiz-adv-x="1949" d="M18 733v277h383l140 -486l73 -272h13l78 252l69 227l-14 35h-119v244h600v-244h-86l107 -285l81 -227h11l73 240l80 274h-96v242h520v-242l-82 -2l-250 -766h-485l-84 231l-63 195h-9l-133 -426h-475l-229 733h-103z" />
<glyph unicode="x" horiz-adv-x="1320" d="M61 0v225h89l266 312l-236 247h-104v226h624v-226h-92l119 -125l117 125h-78v226h487v-226h-67l-291 -288l258 -271h115v-225h-629v225h82l-141 150l-127 -150h77v-225h-469z" />
<glyph unicode="y" horiz-adv-x="1333" d="M37 745v265h387l225 -760h8q91 295 166 516h-96v244h563v-244h-92l-381 -1010q-40 -103 -108.5 -156t-194.5 -53q-52 0 -148.5 13t-181.5 43l45 256q92 -19 144 -19h7q65 0 94 18q30 18 52 74l41 107h-180q-25 73 -130 368t-120 338h-100z" />
<glyph unicode="z" horiz-adv-x="1163" d="M72 0v203l520 581h-248v-145h-248v371h967v-197l-522 -590h301v156h248v-379h-1018z" />
<glyph unicode="{" horiz-adv-x="770" d="M66 473v197q153 19 153 172v286q0 64 15.5 118.5t47.5 99.5t88 70.5t130 25.5h233v-203h-63q-72 0 -98.5 -36t-26.5 -97v-311q0 -87 -41 -143.5t-119 -71.5v-7q87 -22 123.5 -83t36.5 -160v-336q0 -63 25.5 -99t97.5 -36h65v-195h-229q-136 0 -210.5 86.5t-74.5 220.5 v332q0 81 -38.5 121t-114.5 49z" />
<glyph unicode="|" horiz-adv-x="755" d="M250 -311v1771h256v-1771h-256z" />
<glyph unicode="}" horiz-adv-x="770" d="M45 -141h64q72 0 98 36.5t26 98.5v336q0 100 35.5 160.5t122.5 82.5v7q-78 15 -118 71.5t-40 143.5v311q0 133 -127 133h-61v203h231q74 0 130 -25.5t88.5 -70.5t48.5 -99.5t16 -118.5v-286q0 -84 37.5 -122.5t114.5 -49.5v-197q-76 -11 -114 -50t-38 -120v-332 q0 -133 -75.5 -220t-211.5 -87h-227v195z" />
<glyph unicode="~" d="M131 537q52 137 124.5 196.5t166.5 59.5q82 0 254.5 -45.5t243.5 -45.5l137 99l123 -94q-92 -263 -285 -263q-99 0 -273.5 46.5t-226.5 46.5l-137 -95z" />
<glyph unicode="&#xa1;" horiz-adv-x="673" d="M150 852q0 74 51.5 126t136.5 52q82 0 135 -52.5t53 -125.5q0 -77 -52 -128.5t-136 -51.5q-82 0 -135 52.5t-53 127.5zM162 -461l2 492l35 536h280l35 -536v-492h-352z" />
<glyph unicode="&#xa2;" d="M172 500q0 70 10 132.5t37.5 127.5t70.5 115.5t114 90t163 56.5v207h238v-195q142 -9 262 -53v-342h-250v123q-18 4 -61 4q-96 0 -143.5 -70t-47.5 -184q0 -144 54.5 -202t152.5 -58q139 0 279 45q9 -34 32.5 -114.5t34.5 -121.5q-127 -61 -313 -77v-179h-238v185 q-92 14 -162 48t-113.5 80.5t-71 109.5t-38 128.5t-10.5 143.5z" />
<glyph unicode="&#xa3;" d="M102 0l2 238q73 56 102 127.5t38 171.5l4 67h-119v174h133l12 166q18 226 140 345.5t352 119.5q199 0 401 -82v-348h-258v139q-74 19 -121 19q-82 0 -120.5 -50.5t-46.5 -162.5l-11 -146h273v-174h-287l-6 -86q-14 -199 -98 -280h663v-238h-1053z" />
<glyph unicode="&#xa4;" d="M139 281l133 131q-57 90 -57 213t57 215l-133 135l154 155l133 -133q102 60 219 60q118 0 221 -62l129 135l156 -155l-135 -133q57 -96 57 -217q0 -115 -59 -215l137 -129l-156 -158l-133 133q-91 -59 -217 -59t-219 59l-133 -133zM434 625q0 -86 60.5 -146.5 t148.5 -60.5q86 0 147.5 60.5t61.5 146.5q0 87 -60.5 149t-148.5 62t-148.5 -61.5t-60.5 -149.5z" />
<glyph unicode="&#xa5;" d="M31 1126v246h553v-246h-103q18 -38 83.5 -194.5t82.5 -194.5h6q17 36 80.5 193.5t81.5 195.5h-104v246h544v-246h-90q-21 -39 -88.5 -182t-85.5 -178h176v-123h-1042v123h168q-16 32 -83 176t-87 184h-92zM125 436v123h1042v-123h-340v-194h142v-242h-660v242h144v190 l-2 4h-326z" />
<glyph unicode="&#xa6;" horiz-adv-x="755" d="M250 -311v784h256v-784h-256zM250 743v717h256v-717h-256z" />
<glyph unicode="&#xa7;" horiz-adv-x="1167" d="M139 606q0 163 140 266q-127 88 -127 230q0 88 38 155.5t105.5 108t153.5 60.5t188 20q104 0 201.5 -20t158.5 -50v-303h-241v148q-73 18 -127 18q-77 0 -117.5 -34.5t-40.5 -82.5q0 -12 6 -24t18.5 -24t24.5 -22t33 -21.5t35.5 -19t39 -18t36 -15.5t35 -14.5t28.5 -11.5 q49 -19 79.5 -32t71.5 -34t65.5 -42.5t48.5 -50.5t35 -65.5t11 -80.5q0 -158 -131 -262q156 -110 156 -252q0 -162 -133 -256t-383 -94q-195 0 -377 65v310h238q0 -22 -1 -67t-1 -68q90 -23 139 -23q94 0 139 33.5t45 75.5q0 43 -40.5 76t-151.5 73q-57 21 -86.5 32.5 t-79 33.5t-76.5 39t-61.5 44.5t-52 55t-30 64.5t-12.5 79zM426 657q0 -28 11 -47t38 -34t54.5 -26t79 -31t93.5 -40q27 22 42.5 54t15.5 59q0 50 -64 88t-204 92q-66 -47 -66 -115z" />
<glyph unicode="&#xa8;" horiz-adv-x="903" d="M96 1251q0 59 41 100.5t99 41.5q62 0 102.5 -40.5t40.5 -101.5q0 -60 -40.5 -100.5t-100.5 -40.5t-101 40.5t-41 100.5zM528 1251q0 60 41 101t101 41q62 0 102.5 -40.5t40.5 -101.5q0 -60 -41 -100.5t-102 -40.5q-60 0 -101 40.5t-41 100.5z" />
<glyph unicode="&#xa9;" horiz-adv-x="1798" d="M90 672q0 216 108.5 400t294 291t402.5 107q161 0 309.5 -63.5t256 -170t171.5 -254.5t64 -310t-64 -310t-171.5 -255t-256 -170.5t-309.5 -63.5q-163 0 -312 63.5t-257 170.5t-172 255t-64 310zM242 672q0 -175 88 -324.5t238.5 -237t326.5 -87.5q177 0 327 87.5 t237 237t87 324.5t-87 324.5t-237 237t-327 87.5q-176 0 -326.5 -87.5t-238.5 -237t-88 -324.5zM438 655q0 76 13.5 143.5t49.5 134t91.5 114t146 77t207.5 29.5q128 0 260 -39v-293h-172v127q-31 8 -80 8q-241 0 -241 -292q0 -160 67 -224.5t203 -64.5q36 0 104 7t111 17 l35 -176q-128 -51 -320 -51q-111 0 -195.5 26t-136.5 69.5t-85 107.5t-45.5 131t-12.5 149z" />
<glyph unicode="&#xaa;" horiz-adv-x="854" d="M41 733q0 155 174 185q82 15 258 30v15q0 45 -22 64.5t-80 19.5q-108 0 -213 -31q-33 121 -45 160q138 55 325 55q144 0 220.5 -56t76.5 -184v-264h76l10 -154q-36 -16 -94 -26t-104 -10q-121 0 -134 84q-86 -84 -219 -84q-65 0 -112.5 19.5t-71.5 50.5t-34.5 62.5 t-10.5 63.5zM319 762q0 -68 70 -68q46 0 84 33v109q-154 -4 -154 -74z" />
<glyph unicode="&#xab;" horiz-adv-x="1112" d="M80 379v78l375 399l153 -104l-217 -334l213 -326l-158 -115zM524 379v78l373 399l156 -104l-217 -334l213 -326l-156 -115z" />
<glyph unicode="&#xac;" d="M227 520v211h889v-565h-219v354h-670z" />
<glyph unicode="&#xad;" horiz-adv-x="849" d="M131 430v256h588v-256h-588z" />
<glyph unicode="&#xae;" horiz-adv-x="1292" d="M92 944q0 152 70.5 278t197.5 199.5t285 73.5t284.5 -73.5t196.5 -199.5t70 -278q0 -150 -71 -275.5t-198 -199.5t-282 -74q-154 0 -281.5 73.5t-199.5 199.5t-72 276zM207 944q0 -184 122.5 -310t315.5 -126q200 0 319 125t119 311q0 183 -124.5 310.5t-313.5 127.5 t-313.5 -127.5t-124.5 -310.5zM375 668v106h59v375h-59v108h327q111 0 161 -50t50 -130q0 -43 -24 -86t-70 -65l74 -154q5 0 36.5 -3.5t35.5 -4.5v-94q-59 -17 -117 -17q-44 0 -67.5 19t-41.5 61l-75 164h-62v-123h53v-106h-280zM602 1004h55q80 0 80 75q0 72 -73 72h-62 v-147z" />
<glyph unicode="&#xaf;" horiz-adv-x="1228" d="M217 1178v233h801v-233h-801z" />
<glyph unicode="&#xb0;" horiz-adv-x="811" d="M70 1100q0 137 97.5 234.5t233.5 97.5q137 0 233.5 -94t96.5 -238q0 -135 -97.5 -232.5t-232.5 -97.5q-142 0 -236.5 92t-94.5 238zM250 1100q0 -66 41.5 -109t107.5 -43t109 42.5t43 109.5t-41.5 110t-110.5 43q-66 0 -107.5 -43.5t-41.5 -109.5z" />
<glyph unicode="&#xb1;" d="M227 0v207h887v-207h-887zM227 584v211h336v297h217v-297h334v-211h-334v-293h-217v293h-336z" />
<glyph unicode="&#xb2;" horiz-adv-x="849" d="M45 1466q169 109 346 109q166 0 254 -68t88 -188q0 -56 -33 -116t-88.5 -112.5t-108 -92.5t-110.5 -76h178v61h205v-254h-717v168q17 13 66.5 49.5t76.5 57t71 56t70 61.5t53.5 57t40 58.5t12.5 51.5q0 72 -95 72q-100 0 -221 -66z" />
<glyph unicode="&#xb3;" horiz-adv-x="849" d="M39 791q5 9 37 91.5t35 92.5q128 -41 247 -41q61 0 95 22.5t34 61.5q0 80 -141 80q-38 0 -88 -6l-27 114q1 1 90.5 76t106.5 92h-149v-67h-193v258h641q2 -10 17 -74.5t18 -73.5q-9 -8 -99 -82.5t-108 -91.5q103 -22 160 -80t57 -149q0 -140 -110.5 -217.5t-282.5 -77.5 q-204 0 -340 72z" />
<glyph unicode="&#xb4;" horiz-adv-x="1120" d="M379 1214l346 361l178 -203l-409 -287z" />
<glyph unicode="&#xb5;" horiz-adv-x="1355" d="M35 766v244h514v-604q0 -73 22.5 -103.5t85.5 -30.5q31 0 75 18t79 54v424h-100v242h487v-756h127v-227q-148 -50 -272 -50q-108 0 -158.5 37t-63.5 111q-134 -128 -282 -148v-170h129v-239h-639v239h121v959h-125z" />
<glyph unicode="&#xb6;" horiz-adv-x="1396" d="M84 997q0 194 124 327.5t324 133.5h799v-248h-137v-1654h-254v1654h-113v-1654h-444v225h188v772h-39q-195 0 -321.5 122t-126.5 322z" />
<glyph unicode="&#xb7;" horiz-adv-x="622" d="M123 567q0 82 56 138.5t136 56.5t136.5 -57t56.5 -138q0 -78 -57.5 -134t-135.5 -56q-79 0 -135.5 56t-56.5 134z" />
<glyph unicode="&#xb8;" horiz-adv-x="1028" d="M383 -414q109 10 167 38.5t58 70.5q0 37 -36 50t-109 13h-35l-39 58l211 278q17 -12 50.5 -31.5t39.5 -23.5l-112 -152q103 -6 162 -53.5t59 -126.5q0 -46 -24 -86.5t-72 -74.5t-130 -54.5t-188 -21.5q0 20 -1 58t-1 58z" />
<glyph unicode="&#xb9;" horiz-adv-x="849" d="M72 1481l254 84h237v-645h182v-191h-641v191h177v413q-5 -1 -48 -4.5t-83 -7.5t-48 -6z" />
<glyph unicode="&#xba;" horiz-adv-x="888" d="M55 889q0 154 99 249t292 95q191 0 289.5 -95t98.5 -249q0 -156 -99.5 -251t-294.5 -95q-192 0 -288.5 94t-96.5 252zM338 887q0 -78 23 -122t85 -44q105 0 105 168q0 162 -105 162q-108 0 -108 -164z" />
<glyph unicode="&#xbb;" horiz-adv-x="1112" d="M74 752l157 104l371 -399v-78l-364 -402l-160 115l215 326zM520 752l156 104l373 -399v-78l-369 -402l-156 115l213 326z" />
<glyph unicode="&#xbc;" horiz-adv-x="2007" d="M143 1296l254 84h238v-645h182v-190h-641v190h176v414q-3 0 -47 -4.5t-83.5 -8.5t-47.5 -6zM596 -39l682 1501h219l-684 -1501h-217zM1073 236v131q66 78 218 262.5t167 204.5h266v-439h129v-159h-129v-72h82v-160h-420v160h74v72h-387zM1307 395h155v187h-2 q-26 -34 -77.5 -95t-75.5 -92z" />
<glyph unicode="&#xbd;" horiz-adv-x="2007" d="M98 1296l254 84h238v-645h182v-190h-641v190h176v414q-3 0 -47 -4.5t-83.5 -8.5t-47.5 -6zM571 -39l682 1501h220l-685 -1501h-217zM1180 735q169 109 346 109q167 0 254.5 -67t87.5 -189q0 -56 -33 -115.5t-88.5 -112.5t-107.5 -93t-111 -77h178v62h205v-256h-717v170 q16 12 66.5 49.5t76 57.5t71 56t70.5 61.5t52.5 57t40 59t12.5 52.5q0 33 -24 51.5t-70 18.5q-100 0 -221 -66z" />
<glyph unicode="&#xbe;" horiz-adv-x="2007" d="M143 606q5 9 37 92t35 93q128 -41 248 -41q61 0 95 22.5t34 61.5q0 79 -141 79q-39 0 -89 -6l-26 115q10 8 55.5 46.5t86.5 73.5t54 48h-149v-68h-193v258h641q2 -10 17 -74t18 -73q-9 -8 -99 -82.5t-108 -91.5q103 -22 160.5 -80.5t57.5 -149.5q0 -140 -110.5 -217 t-283.5 -77q-206 0 -340 71zM598 -39l682 1501h219l-684 -1501h-217zM1071 236v131q66 78 218 262.5t167 204.5h266v-439h129v-159h-129v-72h82v-160h-420v160h74v72h-387zM1305 395h155v187h-2q-26 -34 -77.5 -95t-75.5 -92z" />
<glyph unicode="&#xbf;" horiz-adv-x="1107" d="M106 -113q0 122 84 226q40 50 102 113t101 102.5t69 92t30 103.5q0 17 -7 64l312 6q8 -65 8 -125q0 -53 -12 -101t-27.5 -81t-46 -71.5t-50.5 -59t-60 -58t-56 -53.5q-55 -55 -55 -106q0 -60 45.5 -92.5t122.5 -32.5q64 0 122 14q0 26 1.5 77t1.5 77h258v-361 q-218 -84 -474 -84q-223 0 -346 94t-123 256zM432 850q0 71 54 122.5t130 51.5q77 0 132 -52t55 -122q0 -71 -55 -123.5t-132 -52.5t-130.5 51.5t-53.5 124.5z" />
<glyph unicode="&#xc0;" horiz-adv-x="1626" d="M41 0v248h111l430 1165h485l406 -1165h112v-248h-627v248h119l-45 145h-465l-47 -145h125v-248h-604zM440 1804l170 201l346 -358l-112 -129zM649 629h309q-21 72 -45 151.5t-53.5 176t-46.5 151.5h-8q-15 -53 -75.5 -234.5t-80.5 -244.5z" />
<glyph unicode="&#xc1;" horiz-adv-x="1626" d="M41 0v248h111l430 1165h485l406 -1165h112v-248h-627v248h119l-45 145h-465l-47 -145h125v-248h-604zM649 629h309q-21 72 -45 151.5t-53.5 176t-46.5 151.5h-8q-15 -53 -75.5 -234.5t-80.5 -244.5zM713 1649l346 360l178 -203l-410 -286z" />
<glyph unicode="&#xc2;" horiz-adv-x="1626" d="M41 0v248h111l430 1165h485l406 -1165h112v-248h-627v248h119l-45 145h-465l-47 -145h125v-248h-604zM371 1624l319 315h234l327 -313l-92 -106l-354 206l-348 -204zM649 629h309q-21 72 -45 151.5t-53.5 176t-46.5 151.5h-8q-15 -53 -75.5 -234.5t-80.5 -244.5z" />
<glyph unicode="&#xc3;" horiz-adv-x="1626" d="M41 0v248h111l430 1165h485l406 -1165h112v-248h-627v248h119l-45 145h-465l-47 -145h125v-248h-604zM385 1624q76 217 238 217q67 0 204.5 -37t194.5 -37l113 82l102 -77q-75 -224 -231 -224q-82 0 -222.5 39t-179.5 39l-112 -80zM649 629h309q-21 72 -45 151.5 t-53.5 176t-46.5 151.5h-8q-15 -53 -75.5 -234.5t-80.5 -244.5z" />
<glyph unicode="&#xc4;" horiz-adv-x="1626" d="M41 0v248h111l430 1165h485l406 -1165h112v-248h-627v248h119l-45 145h-465l-47 -145h125v-248h-604zM463 1661q0 59 40.5 100t98.5 41q60 0 101.5 -40.5t41.5 -100.5t-41 -100.5t-100 -40.5q-60 0 -100.5 40.5t-40.5 100.5zM649 629h309q-21 72 -45 151.5t-53.5 176 t-46.5 151.5h-8q-15 -53 -75.5 -234.5t-80.5 -244.5zM895 1661q0 60 40.5 100.5t100.5 40.5t101 -40.5t41 -100.5t-41 -100.5t-101 -40.5t-100.5 40.5t-40.5 100.5z" />
<glyph unicode="&#xc5;" horiz-adv-x="1626" d="M41 0v248h111l430 1165h485l406 -1165h112v-248h-627v248h119l-45 145h-465l-47 -145h125v-248h-604zM528 1782q0 109 82 189.5t199 80.5q118 0 195 -79.5t77 -190.5q0 -115 -79 -194t-193 -79q-118 0 -199.5 80t-81.5 193zM649 629h309q-21 72 -45 151.5t-53.5 176 t-46.5 151.5h-8q-15 -53 -75.5 -234.5t-80.5 -244.5zM698 1776q0 -42 31 -73.5t80 -31.5q44 0 73 32t29 73q0 45 -27.5 77.5t-74.5 32.5q-45 0 -78 -33.5t-33 -76.5z" />
<glyph unicode="&#xc6;" horiz-adv-x="2228" d="M33 0v250h104l570 909h-103v254h1522v-481h-271v233h-372v-323l358 6v-242l-358 4v-360h393v250h270v-500h-1208v250h149v156h-454l-98 -156h108v-250h-610zM760 641h327v512h-10z" />
<glyph unicode="&#xc7;" horiz-adv-x="1368" d="M102 707q0 80 9 152.5t32 148.5t59.5 139t95 119.5t133.5 95.5t180 61.5t231 22.5q200 0 391 -57v-455h-272v207q-49 10 -113 10q-175 0 -251.5 -112t-76.5 -322q0 -125 23 -208.5t73.5 -132.5t120.5 -69t174 -20q53 0 154 12t170 29l57 -271q-179 -69 -430 -80 q-49 -62 -94 -124q103 -6 162 -54t59 -127q0 -46 -24 -86.5t-72 -74.5t-130 -54.5t-188 -21.5q0 19 -1 58t-1 58q109 10 167.5 38.5t58.5 70.5q0 37 -36.5 50.5t-109.5 13.5h-35l-38 57l149 199q-146 10 -257.5 54t-180.5 110t-112.5 159t-60 190t-16.5 214z" />
<glyph unicode="&#xc8;" horiz-adv-x="1460" d="M90 0v252h148v911h-146v250h1272v-485h-270v235h-461v-321l434 16v-260l-434 12v-358h481v252h272v-504h-1296zM440 1804l170 201l346 -358l-112 -129z" />
<glyph unicode="&#xc9;" horiz-adv-x="1460" d="M90 0v252h148v911h-146v250h1272v-485h-270v235h-461v-321l434 16v-260l-434 12v-358h481v252h272v-504h-1296zM606 1649l346 360l178 -203l-409 -286z" />
<glyph unicode="&#xca;" horiz-adv-x="1460" d="M90 0v252h148v911h-146v250h1272v-485h-270v235h-461v-321l434 16v-260l-434 12v-358h481v252h272v-504h-1296zM326 1624l319 315h234l327 -313l-92 -106l-354 206l-348 -204z" />
<glyph unicode="&#xcb;" horiz-adv-x="1460" d="M90 0v252h148v911h-146v250h1272v-485h-270v235h-461v-321l434 16v-260l-434 12v-358h481v252h272v-504h-1296zM408 1661q0 59 41 100t98 41q60 0 101.5 -40.5t41.5 -100.5t-41 -100.5t-100 -40.5q-60 0 -100.5 40.5t-40.5 100.5zM840 1661q0 60 40.5 100.5t100.5 40.5 t100.5 -40.5t40.5 -100.5t-40.5 -100.5t-100.5 -40.5t-100.5 40.5t-40.5 100.5z" />
<glyph unicode="&#xcc;" horiz-adv-x="972" d="M98 1804l170 201l346 -358l-112 -129zM143 0v250h148v913h-148v252h686v-252h-143v-913h143v-250h-686z" />
<glyph unicode="&#xcd;" horiz-adv-x="972" d="M143 0v250h148v913h-148v252h686v-252h-143v-913h143v-250h-686zM391 1649l346 360l178 -203l-409 -286z" />
<glyph unicode="&#xce;" horiz-adv-x="972" d="M51 1624l320 315h233l328 -313l-92 -106l-355 206l-348 -204zM143 0v250h148v913h-148v252h686v-252h-143v-913h143v-250h-686z" />
<glyph unicode="&#xcf;" horiz-adv-x="972" d="M121 1661q0 59 40.5 100t98.5 41q60 0 101.5 -40.5t41.5 -100.5t-41 -100.5t-100 -40.5q-60 0 -100.5 40.5t-40.5 100.5zM143 0v250h148v913h-148v252h686v-252h-143v-913h143v-250h-686zM553 1661q0 60 40.5 100.5t100.5 40.5t101 -40.5t41 -100.5t-41 -100.5 t-101 -40.5t-100.5 40.5t-40.5 100.5z" />
<glyph unicode="&#xd0;" horiz-adv-x="1605" d="M90 0v250h154v403h-144v160h144v352h-144v250h734q155 0 273 -37.5t192 -100t120.5 -154.5t65 -191.5t18.5 -220.5q0 -117 -21 -218.5t-71 -193.5t-126 -157t-193 -103.5t-265 -38.5h-737zM641 250h145q133 0 215 116.5t82 338.5q0 230 -80.5 345t-222.5 115h-139v-352 h193v-160h-193v-403z" />
<glyph unicode="&#xd1;" horiz-adv-x="1802" d="M86 0v248h143v915h-141v250h563q44 -70 146.5 -230.5t171 -270t139.5 -228.5q33 -50 88 -143h10v622h-137v250h641v-250h-137v-1163h-387l-326 502l-174 274l-90 146q-1 0 -2 -1t-2 -1v-672h139v-248h-645zM461 1628q76 217 237 217q67 0 205 -36.5t195 -36.5l112 81 l103 -77q-75 -224 -232 -224q-82 0 -222 39t-179 39l-113 -80z" />
<glyph unicode="&#xd2;" horiz-adv-x="1624" d="M102 709q0 159 43.5 291t129.5 232t224 156t316 56t315 -56t221.5 -156.5t127.5 -232t43 -288.5q0 -160 -45.5 -293t-132.5 -232t-222.5 -154t-306.5 -55q-177 0 -314.5 54t-224 152t-130.5 231t-44 295zM461 1804l170 201l346 -358l-113 -129zM520 709q0 -225 69 -342 t226 -117q285 0 285 459q0 100 -13 178.5t-44 144.5t-88.5 101.5t-139.5 35.5q-295 0 -295 -460z" />
<glyph unicode="&#xd3;" horiz-adv-x="1624" d="M102 709q0 159 43.5 291t129.5 232t224 156t316 56t315 -56t221.5 -156.5t127.5 -232t43 -288.5q0 -160 -45.5 -293t-132.5 -232t-222.5 -154t-306.5 -55q-177 0 -314.5 54t-224 152t-130.5 231t-44 295zM520 709q0 -225 69 -342t226 -117q285 0 285 459q0 100 -13 178.5 t-44 144.5t-88.5 101.5t-139.5 35.5q-295 0 -295 -460zM700 1649l347 360l178 -203l-410 -286z" />
<glyph unicode="&#xd4;" horiz-adv-x="1624" d="M102 709q0 159 43.5 291t129.5 232t224 156t316 56t315 -56t221.5 -156.5t127.5 -232t43 -288.5q0 -160 -45.5 -293t-132.5 -232t-222.5 -154t-306.5 -55q-177 0 -314.5 54t-224 152t-130.5 231t-44 295zM379 1624l319 315h234l328 -313l-93 -106l-354 206l-348 -204z M520 709q0 -225 69 -342t226 -117q285 0 285 459q0 100 -13 178.5t-44 144.5t-88.5 101.5t-139.5 35.5q-295 0 -295 -460z" />
<glyph unicode="&#xd5;" horiz-adv-x="1624" d="M102 709q0 159 43.5 291t129.5 232t224 156t316 56t315 -56t221.5 -156.5t127.5 -232t43 -288.5q0 -160 -45.5 -293t-132.5 -232t-222.5 -154t-306.5 -55q-177 0 -314.5 54t-224 152t-130.5 231t-44 295zM393 1632q76 217 238 217q67 0 204.5 -36.5t194.5 -36.5l113 82 l102 -78q-75 -224 -231 -224q-82 0 -222.5 39t-179.5 39l-112 -80zM520 709q0 -225 69 -342t226 -117q285 0 285 459q0 100 -13 178.5t-44 144.5t-88.5 101.5t-139.5 35.5q-295 0 -295 -460z" />
<glyph unicode="&#xd6;" horiz-adv-x="1624" d="M102 709q0 159 43.5 291t129.5 232t224 156t316 56t315 -56t221.5 -156.5t127.5 -232t43 -288.5q0 -160 -45.5 -293t-132.5 -232t-222.5 -154t-306.5 -55q-177 0 -314.5 54t-224 152t-130.5 231t-44 295zM453 1661q0 59 40.5 100t98.5 41q60 0 101.5 -40.5t41.5 -100.5 t-41 -100.5t-100 -40.5q-60 0 -100.5 40.5t-40.5 100.5zM520 709q0 -225 69 -342t226 -117q285 0 285 459q0 100 -13 178.5t-44 144.5t-88.5 101.5t-139.5 35.5q-295 0 -295 -460zM885 1661q0 60 40.5 100.5t100.5 40.5t100.5 -40.5t40.5 -100.5t-40.5 -100.5t-100.5 -40.5 t-100.5 40.5t-40.5 100.5z" />
<glyph unicode="&#xd7;" d="M250 362l258 259l-258 258l149 149l256 -258l252 254l154 -156l-250 -252l254 -254l-150 -151l-253 256l-259 -258z" />
<glyph unicode="&#xd8;" horiz-adv-x="1624" d="M100 -18l174 202q-172 193 -172 525q0 159 43.5 291t129.5 232t224 156t316 56q265 0 438 -125l107 127h166l-180 -207q176 -194 176 -528q0 -160 -45.5 -293t-132.5 -232t-222.5 -154t-306.5 -55q-277 0 -455 132l-112 -127h-148zM520 709q0 -129 27 -217l479 569 q-73 110 -211 110q-295 0 -295 -462zM588 365q75 -117 227 -117q285 0 285 461q0 136 -31 225z" />
<glyph unicode="&#xd9;" horiz-adv-x="1638" d="M70 1163v252h624v-252h-121v-651q0 -134 62.5 -197t187.5 -63q111 0 176.5 61.5t65.5 198.5v651h-117v252h621v-252h-121v-633q0 -550 -627 -550q-335 0 -486 140t-151 410v633h-114zM438 1804l170 201l346 -358l-112 -129z" />
<glyph unicode="&#xda;" horiz-adv-x="1638" d="M70 1163v252h624v-252h-121v-651q0 -134 62.5 -197t187.5 -63q111 0 176.5 61.5t65.5 198.5v651h-117v252h621v-252h-121v-633q0 -550 -627 -550q-335 0 -486 140t-151 410v633h-114zM705 1649l346 360l178 -203l-410 -286z" />
<glyph unicode="&#xdb;" horiz-adv-x="1638" d="M70 1163v252h624v-252h-121v-651q0 -134 62.5 -197t187.5 -63q111 0 176.5 61.5t65.5 198.5v651h-117v252h621v-252h-121v-633q0 -550 -627 -550q-335 0 -486 140t-151 410v633h-114zM367 1622l331 309h242l342 -307l-96 -104l-369 202l-360 -200z" />
<glyph unicode="&#xdc;" horiz-adv-x="1638" d="M70 1163v252h624v-252h-121v-651q0 -134 62.5 -197t187.5 -63q111 0 176.5 61.5t65.5 198.5v651h-117v252h621v-252h-121v-633q0 -550 -627 -550q-335 0 -486 140t-151 410v633h-114zM459 1661q0 59 40.5 100t98.5 41q60 0 101.5 -40.5t41.5 -100.5t-41 -100.5 t-100 -40.5q-60 0 -100.5 40.5t-40.5 100.5zM891 1661q0 60 40.5 100.5t100.5 40.5t101 -40.5t41 -100.5t-41 -100.5t-101 -40.5t-100.5 40.5t-40.5 100.5z" />
<glyph unicode="&#xdd;" horiz-adv-x="1501" d="M29 1161v254h620v-254h-112l215 -389h8l215 389h-117v254h615v-254h-107l-408 -649v-262h154v-250h-735v250h155v260l-401 651h-102zM645 1647l346 360l178 -203l-409 -286z" />
<glyph unicode="&#xde;" horiz-adv-x="1402" d="M86 0v227h152v947h-152v241h688v-241h-141v-84h198q527 0 527 -375q0 -81 -30.5 -150t-90 -122t-156 -82.5t-219.5 -28.5l-229 2v-107h141v-227h-688zM633 541h123q88 0 139 43.5t51 126.5q0 176 -201 176h-112v-346z" />
<glyph unicode="&#xdf;" horiz-adv-x="1492" d="M55 0v242h140v520h-132v196h132v148q0 32 5 65t19.5 75.5t37.5 80t63.5 74.5t93.5 63.5t131 43t172 16.5q112 0 200.5 -22.5t141 -56.5t87.5 -78.5t47.5 -84t12.5 -76.5q0 -68 -33.5 -129.5t-73 -97.5t-73 -72t-33.5 -59q0 -24 24.5 -51t63 -54.5t86 -59.5t94.5 -70.5 t85.5 -81t63 -98.5t24.5 -116q0 -160 -119 -252t-334 -92q-145 0 -315 45v316h215v-121q49 -12 84 -12q41 0 69.5 22t28.5 64q0 50 -40 102t-96.5 99.5t-113.5 98.5t-97 116.5t-40 134.5q0 49 19.5 92t47.5 72t56 54.5t47.5 52.5t19.5 54q0 41 -31.5 72t-99.5 31 q-160 0 -160 -183v-1083h-520z" />
<glyph unicode="&#xe0;" horiz-adv-x="1245" d="M63 270q0 57 16.5 102.5t56 86t112.5 68t178 40.5l272 25v33q0 71 -36 105t-123 34q-168 0 -308 -45l-57 229q89 38 215.5 60t245.5 22q208 0 317 -83t109 -277v-424h139q15 -177 17 -209q-133 -62 -312 -62q-83 0 -131.5 30t-52.5 108q0 2 -2 2q-132 -140 -332 -140 q-75 0 -134 19.5t-93.5 50t-57.5 71.5t-31 78.5t-8 75.5zM311 1372l172 203l346 -361l-112 -129zM459 317q0 -56 24.5 -84t79.5 -28q71 0 131 57v174l-137 -18q-50 -7 -74 -35t-24 -66z" />
<glyph unicode="&#xe1;" horiz-adv-x="1245" d="M63 270q0 57 16.5 102.5t56 86t112.5 68t178 40.5l272 25v33q0 71 -36 105t-123 34q-168 0 -308 -45l-57 229q89 38 215.5 60t245.5 22q208 0 317 -83t109 -277v-424h139q15 -177 17 -209q-133 -62 -312 -62q-83 0 -131.5 30t-52.5 108q0 2 -2 2q-132 -140 -332 -140 q-75 0 -134 19.5t-93.5 50t-57.5 71.5t-31 78.5t-8 75.5zM375 1214l346 361l178 -203l-410 -287zM459 317q0 -56 24.5 -84t79.5 -28q71 0 131 57v174l-137 -18q-50 -7 -74 -35t-24 -66z" />
<glyph unicode="&#xe2;" horiz-adv-x="1245" d="M63 270q0 57 16.5 102.5t56 86t112.5 68t178 40.5l272 25v33q0 71 -36 105t-123 34q-168 0 -308 -45l-57 229q89 38 215.5 60t245.5 22q208 0 317 -83t109 -277v-424h139q15 -177 17 -209q-133 -62 -312 -62q-83 0 -131.5 30t-52.5 108q0 2 -2 2q-132 -140 -332 -140 q-75 0 -134 19.5t-93.5 50t-57.5 71.5t-31 78.5t-8 75.5zM178 1186l320 319h235l326 -317l-90 -107l-355 207l-350 -205zM459 317q0 -56 24.5 -84t79.5 -28q71 0 131 57v174l-137 -18q-50 -7 -74 -35t-24 -66z" />
<glyph unicode="&#xe3;" horiz-adv-x="1245" d="M63 270q0 57 16.5 102.5t56 86t112.5 68t178 40.5l272 25v33q0 71 -36 105t-123 34q-168 0 -308 -45l-57 229q89 38 215.5 60t245.5 22q208 0 317 -83t109 -277v-424h139q15 -177 17 -209q-133 -62 -312 -62q-83 0 -131.5 30t-52.5 108q0 2 -2 2q-132 -140 -332 -140 q-75 0 -134 19.5t-93.5 50t-57.5 71.5t-31 78.5t-8 75.5zM195 1231q76 217 237 217q67 0 204.5 -37t194.5 -37l113 82l103 -78q-74 -223 -232 -223q-82 0 -222 39t-179 39l-113 -80zM459 317q0 -56 24.5 -84t79.5 -28q71 0 131 57v174l-137 -18q-50 -7 -74 -35t-24 -66z" />
<glyph unicode="&#xe4;" horiz-adv-x="1245" d="M63 270q0 57 16.5 102.5t56 86t112.5 68t178 40.5l272 25v33q0 71 -36 105t-123 34q-168 0 -308 -45l-57 229q89 38 215.5 60t245.5 22q208 0 317 -83t109 -277v-424h139q15 -177 17 -209q-133 -62 -312 -62q-83 0 -131.5 30t-52.5 108q0 2 -2 2q-132 -140 -332 -140 q-75 0 -134 19.5t-93.5 50t-57.5 71.5t-31 78.5t-8 75.5zM289 1251q0 60 41 101t98 41q62 0 102.5 -40.5t40.5 -101.5q0 -60 -40.5 -100.5t-100.5 -40.5t-100.5 40.5t-40.5 100.5zM459 317q0 -56 24.5 -84t79.5 -28q71 0 131 57v174l-137 -18q-50 -7 -74 -35t-24 -66z M721 1251q0 60 40.5 101t100.5 41q62 0 103 -40.5t41 -101.5q0 -60 -41.5 -100.5t-102.5 -40.5q-60 0 -100.5 40.5t-40.5 100.5z" />
<glyph unicode="&#xe5;" horiz-adv-x="1245" d="M63 270q0 57 16.5 102.5t56 86t112.5 68t178 40.5l272 25v33q0 71 -36 105t-123 34q-168 0 -308 -45l-57 229q89 38 215.5 60t245.5 22q208 0 317 -83t109 -277v-424h139q15 -177 17 -209q-133 -62 -312 -62q-83 0 -131.5 30t-52.5 108q0 2 -2 2q-132 -140 -332 -140 q-75 0 -134 19.5t-93.5 50t-57.5 71.5t-31 78.5t-8 75.5zM352 1389q0 109 82 189.5t199 80.5q118 0 195 -79.5t77 -190.5q0 -115 -79 -194t-193 -79q-118 0 -199.5 80t-81.5 193zM459 317q0 -56 24.5 -84t79.5 -28q71 0 131 57v174l-137 -18q-50 -7 -74 -35t-24 -66z M522 1382q0 -42 31 -73t80 -31q44 0 73 31.5t29 72.5q0 45 -27.5 78t-74.5 33q-45 0 -78 -34t-33 -77z" />
<glyph unicode="&#xe6;" horiz-adv-x="1769" d="M55 272q0 40 7.5 77.5t31 83t62 78t108 55t160.5 22.5h303v39q0 73 -43 106t-139 33q-183 0 -334 -45l-57 229q89 38 218.5 60t248.5 22q92 0 181.5 -30.5t127.5 -88.5q115 121 313 121q112 0 197 -30.5t135.5 -79t82.5 -116.5t43 -133.5t11 -139.5v-82h-614 q0 -109 51.5 -157t169.5 -48q133 0 299 57l70 -223q-179 -102 -441 -102q-162 0 -255.5 35.5t-151.5 113.5q-173 -156 -430 -156q-83 0 -147.5 20t-102.5 50.5t-62.5 72t-33.5 79.5t-9 77zM451 326q0 -119 120 -119q38 0 91 19t88 55q-24 80 -27 165h-113q-77 0 -118 -31 t-41 -89zM1104 590h270q0 92 -28 141t-99 49q-72 0 -106 -52.5t-37 -137.5z" />
<glyph unicode="&#xe7;" horiz-adv-x="1083" d="M78 500q0 81 13.5 151.5t50.5 143.5t96.5 124.5t159 84t229.5 32.5q199 0 346 -55v-342h-250v123q-18 4 -61 4q-96 0 -143.5 -70t-47.5 -184q0 -144 54.5 -202t152.5 -58q138 0 278 45q9 -34 33 -115t35 -121q-151 -72 -365 -79l-67 -95q103 -6 162 -53.5t59 -126.5 q0 -46 -24 -86.5t-72 -74.5t-130 -54.5t-188 -21.5q0 20 -1 58t-1 58q109 10 167.5 38.5t58.5 70.5q0 37 -36 50t-110 13h-35l-39 58l127 168q-106 8 -186 40t-130 78.5t-81 112t-43 134t-12 151.5z" />
<glyph unicode="&#xe8;" horiz-adv-x="1171" d="M82 502q0 81 16 154.5t55.5 143.5t99 121t152 82t209.5 31q113 0 199.5 -29.5t138 -77t84 -114.5t44.5 -134t12 -144v-84h-625q0 -110 52 -156.5t171 -46.5q145 0 305 57l74 -225q-191 -103 -453 -103q-106 0 -190.5 20t-142 57.5t-98 85t-62.5 108.5t-31.5 122t-9.5 132 zM295 1372l172 203l346 -361l-113 -129zM473 604h272q-2 82 -30 128t-99 46q-70 0 -105.5 -50t-37.5 -124z" />
<glyph unicode="&#xe9;" horiz-adv-x="1171" d="M82 502q0 81 16 154.5t55.5 143.5t99 121t152 82t209.5 31q113 0 199.5 -29.5t138 -77t84 -114.5t44.5 -134t12 -144v-84h-625q0 -110 52 -156.5t171 -46.5q145 0 305 57l74 -225q-191 -103 -453 -103q-106 0 -190.5 20t-142 57.5t-98 85t-62.5 108.5t-31.5 122t-9.5 132 zM375 1214l346 361l178 -203l-410 -287zM473 604h272q-2 82 -30 128t-99 46q-70 0 -105.5 -50t-37.5 -124z" />
<glyph unicode="&#xea;" horiz-adv-x="1171" d="M82 502q0 81 16 154.5t55.5 143.5t99 121t152 82t209.5 31q113 0 199.5 -29.5t138 -77t84 -114.5t44.5 -134t12 -144v-84h-625q0 -110 52 -156.5t171 -46.5q145 0 305 57l74 -225q-191 -103 -453 -103q-106 0 -190.5 20t-142 57.5t-98 85t-62.5 108.5t-31.5 122t-9.5 132 zM184 1186l320 319h235l326 -317l-90 -107l-354 207l-351 -205zM473 604h272q-2 82 -30 128t-99 46q-70 0 -105.5 -50t-37.5 -124z" />
<glyph unicode="&#xeb;" horiz-adv-x="1171" d="M82 502q0 81 16 154.5t55.5 143.5t99 121t152 82t209.5 31q113 0 199.5 -29.5t138 -77t84 -114.5t44.5 -134t12 -144v-84h-625q0 -110 52 -156.5t171 -46.5q145 0 305 57l74 -225q-191 -103 -453 -103q-106 0 -190.5 20t-142 57.5t-98 85t-62.5 108.5t-31.5 122t-9.5 132 zM262 1251q0 60 41 101t98 41q62 0 103 -40.5t41 -101.5q0 -60 -41 -100.5t-101 -40.5t-100.5 40.5t-40.5 100.5zM473 604h272q-2 82 -30 128t-99 46q-70 0 -105.5 -50t-37.5 -124zM694 1251q0 60 41 101t101 41q62 0 102.5 -40.5t40.5 -101.5q0 -60 -41 -100.5t-102 -40.5 q-60 0 -101 40.5t-41 100.5z" />
<glyph unicode="&#xec;" horiz-adv-x="798" d="M61 1372l172 203l347 -361l-113 -129zM88 770v240h492v-754h141v-227q-57 -25 -134.5 -39.5t-140.5 -14.5q-138 0 -194.5 55.5t-56.5 172.5v567h-107z" />
<glyph unicode="&#xed;" horiz-adv-x="798" d="M88 770v240h492v-754h141v-227q-57 -25 -134.5 -39.5t-140.5 -14.5q-138 0 -194.5 55.5t-56.5 172.5v567h-107zM180 1214l346 361l179 -203l-410 -287z" />
<glyph unicode="&#xee;" horiz-adv-x="815" d="M-66 1186l320 319h235l326 -317l-90 -107l-354 207l-351 -205zM88 770v240h492v-754h141v-227q-57 -25 -134.5 -39.5t-140.5 -14.5q-138 0 -194.5 55.5t-56.5 172.5v567h-107z" />
<glyph unicode="&#xef;" horiz-adv-x="798" d="M27 1251q0 60 41 101t98 41q62 0 102.5 -40.5t40.5 -101.5q0 -60 -40.5 -100.5t-100.5 -40.5t-100.5 40.5t-40.5 100.5zM88 770v240h492v-754h141v-227q-57 -25 -134.5 -39.5t-140.5 -14.5q-138 0 -194.5 55.5t-56.5 172.5v567h-107zM459 1251q0 60 40.5 101t100.5 41 q62 0 102.5 -40.5t40.5 -101.5q0 -60 -41 -100.5t-102 -40.5q-60 0 -100.5 40.5t-40.5 100.5z" />
<glyph unicode="&#xf0;" horiz-adv-x="1294" d="M82 469q0 132 62.5 245t179.5 182t264 69q121 0 205 -43q-40 133 -134 241l-176 -116l-63 96l151 102q-71 59 -168 115l97 186q171 -65 299 -151l170 114l67 -96l-135 -88q341 -279 307 -778q-3 -56 -12.5 -109t-29.5 -111t-49.5 -107t-75 -94t-103 -76.5t-137.5 -50.5 t-174 -19q-121 0 -216 28.5t-156 75t-100.5 111t-56 132t-16.5 142.5zM473 483q0 -48 6 -85.5t22.5 -76.5t52.5 -61t89 -22q180 0 180 301q0 65 -8 125q-83 51 -166 51q-93 0 -134.5 -66.5t-41.5 -165.5z" />
<glyph unicode="&#xf1;" horiz-adv-x="1425" d="M55 770v240h504v-88q1 0 6 -1t6 -1q161 114 320 114q77 0 137.5 -18.5t99.5 -50.5t64.5 -79t36 -99t10.5 -115v-418h131v-225q-122 -52 -264 -52q-64 0 -111 15.5t-73.5 38.5t-42.5 57t-20.5 63.5t-4.5 65.5v377q0 79 -29.5 113t-95.5 34q-36 0 -81 -17t-81 -44v-680 h-389v770h-123zM223 1241q76 217 238 217q67 0 204.5 -37t194.5 -37l113 82l102 -77q-75 -224 -231 -224q-82 0 -222.5 39t-179.5 39l-112 -80z" />
<glyph unicode="&#xf2;" horiz-adv-x="1286" d="M82 506q0 113 34.5 207.5t102.5 166.5t177 112t249 40q141 0 249.5 -40t175 -112t100.5 -166.5t34 -207.5t-34 -207.5t-102 -166.5t-177.5 -112t-251.5 -40q-276 0 -416.5 144t-140.5 382zM303 1372l172 203l346 -361l-112 -129zM477 506q0 -61 7 -106t25 -83.5 t51.5 -58.5t82.5 -20q48 0 81.5 20.5t51.5 59t25.5 84t7.5 104.5q0 262 -162 262q-170 0 -170 -262z" />
<glyph unicode="&#xf3;" horiz-adv-x="1286" d="M82 506q0 113 34.5 207.5t102.5 166.5t177 112t249 40q141 0 249.5 -40t175 -112t100.5 -166.5t34 -207.5t-34 -207.5t-102 -166.5t-177.5 -112t-251.5 -40q-276 0 -416.5 144t-140.5 382zM426 1214l346 361l178 -203l-409 -287zM477 506q0 -61 7 -106t25 -83.5 t51.5 -58.5t82.5 -20q48 0 81.5 20.5t51.5 59t25.5 84t7.5 104.5q0 262 -162 262q-170 0 -170 -262z" />
<glyph unicode="&#xf4;" horiz-adv-x="1286" d="M82 506q0 113 34.5 207.5t102.5 166.5t177 112t249 40q141 0 249.5 -40t175 -112t100.5 -166.5t34 -207.5t-34 -207.5t-102 -166.5t-177.5 -112t-251.5 -40q-276 0 -416.5 144t-140.5 382zM207 1186l319 319h236l325 -317l-90 -107l-354 207l-350 -205zM477 506 q0 -61 7 -106t25 -83.5t51.5 -58.5t82.5 -20q48 0 81.5 20.5t51.5 59t25.5 84t7.5 104.5q0 262 -162 262q-170 0 -170 -262z" />
<glyph unicode="&#xf5;" horiz-adv-x="1286" d="M82 506q0 113 34.5 207.5t102.5 166.5t177 112t249 40q141 0 249.5 -40t175 -112t100.5 -166.5t34 -207.5t-34 -207.5t-102 -166.5t-177.5 -112t-251.5 -40q-276 0 -416.5 144t-140.5 382zM223 1212q77 218 238 218q67 0 204.5 -37t194.5 -37l113 82l102 -78 q-74 -223 -231 -223q-82 0 -222.5 38.5t-179.5 38.5l-112 -79zM477 506q0 -61 7 -106t25 -83.5t51.5 -58.5t82.5 -20q48 0 81.5 20.5t51.5 59t25.5 84t7.5 104.5q0 262 -162 262q-170 0 -170 -262z" />
<glyph unicode="&#xf6;" horiz-adv-x="1286" d="M82 506q0 113 34.5 207.5t102.5 166.5t177 112t249 40q141 0 249.5 -40t175 -112t100.5 -166.5t34 -207.5t-34 -207.5t-102 -166.5t-177.5 -112t-251.5 -40q-276 0 -416.5 144t-140.5 382zM281 1251q0 60 41 101t98 41q62 0 102.5 -40.5t40.5 -101.5q0 -60 -40.5 -100.5 t-100.5 -40.5t-100.5 40.5t-40.5 100.5zM477 506q0 -61 7 -106t25 -83.5t51.5 -58.5t82.5 -20q48 0 81.5 20.5t51.5 59t25.5 84t7.5 104.5q0 262 -162 262q-170 0 -170 -262zM713 1251q0 60 40.5 101t100.5 41q62 0 102.5 -40.5t40.5 -101.5q0 -60 -41 -100.5t-102 -40.5 q-60 0 -100.5 40.5t-40.5 100.5z" />
<glyph unicode="&#xf7;" d="M193 520v213h903v-213h-903zM483 254q0 66 47.5 113t114.5 47q66 0 113 -47t47 -113t-47.5 -114t-112.5 -48q-67 0 -114.5 48t-47.5 114zM483 1001q0 66 47.5 113t114.5 47q66 0 113 -47t47 -113t-47.5 -113.5t-112.5 -47.5q-67 0 -114.5 47.5t-47.5 113.5z" />
<glyph unicode="&#xf8;" horiz-adv-x="1286" d="M76 -14l135 141q-129 135 -129 377q0 113 34.5 207.5t102 166.5t176 112t248.5 40q199 0 340 -88l80 88h141l-139 -149q137 -140 137 -377q0 -113 -34 -207t-102 -165t-177.5 -110.5t-251.5 -39.5q-217 0 -344 81q-43 -46 -76 -77h-141zM471 510q0 -69 12 -104l273 309 q-40 53 -113 53q-84 0 -128 -70.5t-44 -187.5zM518 293q44 -57 125 -57q91 0 127.5 71t36.5 197q0 59 -14 100z" />
<glyph unicode="&#xf9;" horiz-adv-x="1402" d="M55 766v244h514v-604q0 -72 23 -103t86 -31q30 0 74 18t79 54v424h-100v242h488v-756h127v-227q-148 -50 -273 -50q-108 0 -158 37t-63 111q-158 -152 -340 -152q-164 0 -248 88t-84 254v451h-125zM350 1372l172 203l346 -361l-112 -129z" />
<glyph unicode="&#xfa;" horiz-adv-x="1402" d="M55 766v244h514v-604q0 -72 23 -103t86 -31q30 0 74 18t79 54v424h-100v242h488v-756h127v-227q-148 -50 -273 -50q-108 0 -158 37t-63 111q-158 -152 -340 -152q-164 0 -248 88t-84 254v451h-125zM516 1214l346 361l178 -203l-409 -287z" />
<glyph unicode="&#xfb;" horiz-adv-x="1402" d="M55 766v244h514v-604q0 -72 23 -103t86 -31q30 0 74 18t79 54v424h-100v242h488v-756h127v-227q-148 -50 -273 -50q-108 0 -158 37t-63 111q-158 -152 -340 -152q-164 0 -248 88t-84 254v451h-125zM254 1186l319 319h236l326 -317l-91 -107l-354 207l-350 -205z" />
<glyph unicode="&#xfc;" horiz-adv-x="1402" d="M55 766v244h514v-604q0 -72 23 -103t86 -31q30 0 74 18t79 54v424h-100v242h488v-756h127v-227q-148 -50 -273 -50q-108 0 -158 37t-63 111q-158 -152 -340 -152q-164 0 -248 88t-84 254v451h-125zM330 1251q0 60 41 101t98 41q62 0 102.5 -40.5t40.5 -101.5 q0 -60 -40.5 -100.5t-100.5 -40.5t-100.5 40.5t-40.5 100.5zM762 1251q0 60 40.5 101t100.5 41q62 0 103 -40.5t41 -101.5q0 -60 -41.5 -100.5t-102.5 -40.5q-60 0 -100.5 40.5t-40.5 100.5z" />
<glyph unicode="&#xfd;" horiz-adv-x="1333" d="M37 745v265h387l225 -760h8q91 295 166 516h-96v244h563v-244h-92l-381 -1010q-40 -103 -108.5 -156t-194.5 -53q-52 0 -148.5 13t-181.5 43l45 256q92 -19 144 -19q70 -1 100.5 17.5t52.5 74.5l41 107h-180q-25 73 -130 368t-120 338h-100zM481 1214l346 361l179 -203 l-410 -287z" />
<glyph unicode="&#xfe;" horiz-adv-x="1361" d="M45 1174v239h504v-477q1 0 3 -1t3 -1q65 46 147 69t144 23q434 0 434 -500q0 -546 -453 -546q-53 0 -131.5 14t-134.5 41v-230h131v-237h-645v237h127v1369h-129zM561 291q82 -45 168 -45q31 0 57.5 11.5t53 39t42 85t15.5 138.5q0 76 -13.5 127t-39.5 74.5t-52.5 32 t-62.5 8.5t-84.5 -16.5t-83.5 -40.5v-414z" />
<glyph unicode="&#xff;" horiz-adv-x="1333" d="M37 745v265h387l225 -760h8q91 295 166 516h-96v244h563v-244h-92l-381 -1010q-40 -103 -108.5 -156t-194.5 -53q-52 0 -148.5 13t-181.5 43l45 256q92 -19 144 -19q70 -1 100.5 17.5t52.5 74.5l41 107h-180q-25 73 -130 368t-120 338h-100zM297 1251q0 60 41 101t98 41 q62 0 103 -40.5t41 -101.5q0 -60 -41 -100.5t-101 -40.5t-100.5 40.5t-40.5 100.5zM729 1251q0 60 40.5 101t100.5 41q62 0 103 -40.5t41 -101.5q0 -60 -41.5 -100.5t-102.5 -40.5q-60 0 -100.5 40.5t-40.5 100.5z" />
<glyph unicode="&#x152;" horiz-adv-x="1978" d="M86 707q0 126 27 235.5t84 202t140 158t200.5 102.5t259.5 37q117 0 241 -31h852v-479h-270v231h-385v-321q55 1 179.5 7t176.5 7v-260q-53 0 -177 6t-179 6v-360h410v250h272v-498h-918q-105 -20 -202 -20q-177 0 -314 53t-223 150.5t-130 229.5t-44 294zM504 707 q0 -226 68.5 -343.5t224.5 -117.5q29 0 43 2v919q-4 0 -17 1t-22 1h-15q-282 -8 -282 -462z" />
<glyph unicode="&#x153;" horiz-adv-x="1886" d="M72 506q0 113 34.5 207.5t102.5 166.5t177 112t249 40q222 0 352 -127q124 137 359 137q113 0 199.5 -30.5t138.5 -79t84.5 -116.5t44.5 -133.5t12 -139.5v-70h-627q0 -110 53.5 -163.5t169.5 -53.5q149 0 305 57l74 -223q-193 -104 -450 -104q-235 0 -355 120 q-139 -126 -364 -126q-141 0 -249 39.5t-175 110.5t-101 165.5t-34 210.5zM467 506q0 -126 37 -197t131 -71q48 0 81.5 20.5t51 59t24.5 84t7 104.5q0 264 -164 264q-48 0 -82 -22t-52 -61.5t-26 -83.5t-8 -97zM1204 598h277q-2 92 -31 141t-100 49q-73 0 -108 -52.5 t-38 -137.5z" />
<glyph unicode="&#x178;" horiz-adv-x="1501" d="M29 1161v254h620v-254h-112l215 -389h8l215 389h-117v254h615v-254h-107l-408 -649v-262h154v-250h-735v250h155v260l-401 651h-102zM383 1661q0 59 40.5 100t98.5 41q60 0 102 -40.5t42 -100.5t-41.5 -100.5t-100.5 -40.5q-60 0 -100.5 40.5t-40.5 100.5zM815 1661 q0 60 40.5 100.5t100.5 40.5t101 -40.5t41 -100.5t-41 -100.5t-101 -40.5t-100.5 40.5t-40.5 100.5z" />
<glyph unicode="&#x2c6;" horiz-adv-x="1228" d="M178 1186l320 319h235l326 -317l-90 -107l-355 207l-350 -205z" />
<glyph unicode="&#x2dc;" horiz-adv-x="1228" d="M203 1214q41 116 100 167t137 51q67 0 205 -37t195 -37l112 82l103 -78q-74 -223 -232 -223q-82 0 -222 39t-179 39l-113 -80z" />
<glyph unicode="&#x2000;" horiz-adv-x="1026" />
<glyph unicode="&#x2001;" horiz-adv-x="2052" />
<glyph unicode="&#x2002;" horiz-adv-x="1026" />
<glyph unicode="&#x2003;" horiz-adv-x="2052" />
<glyph unicode="&#x2004;" horiz-adv-x="684" />
<glyph unicode="&#x2005;" horiz-adv-x="513" />
<glyph unicode="&#x2006;" horiz-adv-x="342" />
<glyph unicode="&#x2007;" horiz-adv-x="342" />
<glyph unicode="&#x2008;" horiz-adv-x="256" />
<glyph unicode="&#x2009;" horiz-adv-x="410" />
<glyph unicode="&#x200a;" horiz-adv-x="114" />
<glyph unicode="&#x2010;" horiz-adv-x="849" d="M131 430v256h588v-256h-588z" />
<glyph unicode="&#x2011;" horiz-adv-x="849" d="M131 430v256h588v-256h-588z" />
<glyph unicode="&#x2012;" horiz-adv-x="849" d="M131 430v256h588v-256h-588z" />
<glyph unicode="&#x2013;" horiz-adv-x="1024" d="M96 418v221h834v-221h-834z" />
<glyph unicode="&#x2014;" horiz-adv-x="2048" d="M129 418v221h1788v-221h-1788z" />
<glyph unicode="&#x2018;" horiz-adv-x="593" d="M102 1071q0 129 92 255.5t214 186.5l92 -122q-60 -48 -91 -94.5t-40 -108.5q125 -20 125 -160q0 -72 -55.5 -125t-139.5 -53q-99 0 -148 64.5t-49 156.5z" />
<glyph unicode="&#x2019;" horiz-adv-x="593" d="M104 973q60 48 91.5 94.5t40.5 108.5q-64 10 -95.5 52t-31.5 107q0 74 55 127.5t141 53.5q98 0 146.5 -65.5t48.5 -158.5q0 -130 -90 -255t-213 -185z" />
<glyph unicode="&#x201a;" horiz-adv-x="624" d="M106 -209q119 101 136 225q-68 7 -100.5 50.5t-32.5 111.5q0 74 56.5 127t143.5 53q100 0 150.5 -65.5t50.5 -159.5q0 -135 -87 -265t-220 -202z" />
<glyph unicode="&#x201c;" horiz-adv-x="997" d="M90 1071q0 130 91 255t214 187q3 -4 37.5 -51t54.5 -71q-61 -49 -92.5 -95.5t-38.5 -107.5q125 -20 125 -160q0 -73 -55.5 -125.5t-140.5 -52.5q-97 0 -146 64.5t-49 156.5zM518 1071q0 129 91.5 255.5t211.5 186.5q16 -21 46.5 -61t47.5 -61q-60 -50 -92 -96t-39 -107 q125 -20 125 -160q0 -73 -55 -125.5t-139 -52.5q-99 0 -148 64.5t-49 156.5z" />
<glyph unicode="&#x201d;" horiz-adv-x="997" d="M92 973q61 48 92.5 94.5t38.5 108.5q-63 10 -94 52t-31 107q0 74 56 127.5t143 53.5q97 0 146 -65.5t49 -158.5q0 -130 -91.5 -255t-214.5 -185zM522 973q61 49 92.5 95.5t38.5 107.5q-63 10 -94 52t-31 107q0 74 55.5 127.5t141.5 53.5q97 0 146 -65.5t49 -158.5 q0 -130 -90.5 -255t-213.5 -185z" />
<glyph unicode="&#x201e;" horiz-adv-x="1085" d="M106 -209q119 101 136 225q-68 7 -100.5 50.5t-32.5 111.5q0 74 56.5 127t143.5 53q100 0 150.5 -65.5t50.5 -159.5q0 -135 -87 -265t-220 -202zM571 -209q122 104 136 225q-66 7 -99 50.5t-33 111.5q0 74 56 127t143 53q102 0 152.5 -65.5t50.5 -159.5 q0 -134 -88 -264.5t-221 -202.5z" />
<glyph unicode="&#x2022;" horiz-adv-x="919" d="M162 549q0 125 87 212t212 87q123 0 210 -87.5t87 -211.5q0 -125 -87 -213t-210 -88q-124 0 -211.5 88t-87.5 213z" />
<glyph unicode="&#x2026;" horiz-adv-x="1753" d="M113 176q0 77 57.5 134t136.5 57q78 0 134.5 -57t56.5 -134q0 -81 -56.5 -136.5t-134.5 -55.5q-80 0 -137 55.5t-57 136.5zM680 176q0 77 56.5 134t135.5 57q78 0 135.5 -57t57.5 -134q0 -81 -57 -136.5t-136 -55.5t-135.5 55.5t-56.5 136.5zM1253 176q0 76 58 133.5 t135 57.5q79 0 135.5 -57t56.5 -134q0 -81 -56 -136.5t-134 -55.5q-79 0 -137 55.5t-58 136.5z" />
<glyph unicode="&#x202f;" horiz-adv-x="410" />
<glyph unicode="&#x2039;" horiz-adv-x="763" d="M100 379v78l373 399l156 -104l-217 -334l213 -326l-158 -115z" />
<glyph unicode="&#x203a;" horiz-adv-x="763" d="M102 752l156 104l373 -399v-78l-365 -402l-160 115l213 326z" />
<glyph unicode="&#x205f;" horiz-adv-x="513" />
<glyph unicode="&#x20ac;" d="M53 526v117h891v-117h-399q50 -252 309 -252q42 0 98 9v116h250v-366q-83 -25 -196.5 -40.5t-208.5 -15.5q-159 0 -278.5 42.5t-193 120t-113.5 172.5t-54 214h-105zM53 725v125h105q12 91 38.5 167.5t78 148.5t123.5 121.5t180 79.5t243 30q174 0 359 -56v-360h-252v121 q-46 12 -101 12q-245 0 -288 -264h405v-125h-891z" />
<glyph unicode="&#x2122;" horiz-adv-x="1918" d="M57 1145v268h725v-268h-149v127h-105v-459h90v-139h-399v139h90v459h-102v-127h-150zM819 674v139h82v461h-82v139h355l77 -166q87 -193 92 -203h3q7 14 45 102t45 103l71 164h357v-139h-72v-461h72v-139h-348v139h63v320h-4l-80 -179q-20 -35 -59 -139h-179 q-3 5 -32.5 70t-34.5 73q-25 48 -80 172h-2v-317h70v-139h-359z" />
<glyph unicode="&#x25fc;" horiz-adv-x="1013" d="M0 0v1014h1014v-1014h-1014z" />
</font>
</defs>
</svg>
